<svg width="100" height="100" viewBox="0 0 100 100" fill="none" xmlns="http://www.w3.org/2000/svg">
<g clip-path="url(#clip0_237_5173)">
<rect width="100" height="100" fill="white"/>
<g clip-path="url(#clip1_237_5173)">
<path d="M100 -1H-1V100H100V-1Z" fill="#D82435"/>
<g opacity="0.6">
<path d="M29.401 51.126H29.8656" stroke="#DF5E4C" stroke-width="0.303" stroke-miterlimit="10" stroke-linecap="round" stroke-linejoin="round"/>
<path d="M29.6333 50.8938V51.3584" stroke="#DF5E4C" stroke-width="0.303" stroke-miterlimit="10" stroke-linecap="round" stroke-linejoin="round"/>
</g>
<g opacity="0.67">
<path d="M76.9518 53.0857H77.4164" stroke="#DF5E4C" stroke-width="0.303" stroke-miterlimit="10" stroke-linecap="round" stroke-linejoin="round"/>
<path d="M77.1841 52.8533V53.3179" stroke="#DF5E4C" stroke-width="0.303" stroke-miterlimit="10" stroke-linecap="round" stroke-linejoin="round"/>
</g>
<path d="M24.5227 51.126H23.5127" stroke="#F7931E" stroke-width="0.404" stroke-miterlimit="10" stroke-linecap="round" stroke-linejoin="round"/>
<path d="M24.0177 50.6213V51.6313" stroke="#F7931E" stroke-width="0.404" stroke-miterlimit="10" stroke-linecap="round" stroke-linejoin="round"/>
<g opacity="0.7">
<path d="M74.538 49.5H73.4977" stroke="#F7931E" stroke-width="0.404" stroke-miterlimit="10" stroke-linecap="round" stroke-linejoin="round"/>
<path d="M74.0228 48.9749V50.0253" stroke="#F7931E" stroke-width="0.404" stroke-miterlimit="10" stroke-linecap="round" stroke-linejoin="round"/>
</g>
<g opacity="0.4">
<path d="M28.1385 60.0544H29.1485" stroke="#622F2F" stroke-width="0.505" stroke-miterlimit="10" stroke-linecap="round" stroke-linejoin="round"/>
<path d="M28.6435 59.5496V60.5596" stroke="#622F2F" stroke-width="0.505" stroke-miterlimit="10" stroke-linecap="round" stroke-linejoin="round"/>
</g>
<g opacity="0.6">
<path d="M66.7103 60.0544H67.4577" stroke="#8DC838" stroke-width="0.303" stroke-miterlimit="10" stroke-linecap="round"/>
<path d="M67.0841 59.6807V60.4281" stroke="#8DC838" stroke-width="0.303" stroke-miterlimit="10" stroke-linecap="round"/>
</g>
<path d="M74.0229 57.1154C74.2906 57.1154 74.5077 56.8983 74.5077 56.6306C74.5077 56.3628 74.2906 56.1458 74.0229 56.1458C73.7551 56.1458 73.5381 56.3628 73.5381 56.6306C73.5381 56.8983 73.7551 57.1154 74.0229 57.1154Z" stroke="#8DC838" stroke-width="0.404" stroke-miterlimit="10"/>
<path opacity="0.8" d="M27.1184 55.449C27.3303 55.449 27.5022 55.2772 27.5022 55.0652C27.5022 54.8532 27.3303 54.6814 27.1184 54.6814C26.9064 54.6814 26.7346 54.8532 26.7346 55.0652C26.7346 55.2772 26.9064 55.449 27.1184 55.449Z" stroke="#8DC838" stroke-width="0.404" stroke-miterlimit="10"/>
<path opacity="0.74" d="M72.7906 63.1048C72.9747 63.1048 73.1239 62.9556 73.1239 62.7715C73.1239 62.5875 72.9747 62.4382 72.7906 62.4382C72.6065 62.4382 72.4573 62.5875 72.4573 62.7715C72.4573 62.9556 72.6065 63.1048 72.7906 63.1048Z" stroke="#622F2F" stroke-width="0.303" stroke-miterlimit="10" stroke-linecap="round" stroke-linejoin="round"/>
</g>
<g opacity="0.15">
<path d="M68.556 15.0431L74.8276 -1.46552L93.75 -5" stroke="#262626" stroke-width="3.01724" stroke-miterlimit="10" stroke-linecap="round" stroke-linejoin="round"/>
<path d="M-10 100H100" stroke="#262626" stroke-width="1.72414" stroke-miterlimit="10" stroke-linecap="round" stroke-linejoin="round"/>
<path d="M84.6552 100H54.5905L45.4957 34.4612H93.75L84.6552 100Z" stroke="#262626" stroke-width="1.72414" stroke-miterlimit="10" stroke-linecap="round" stroke-linejoin="round"/>
<path d="M100 34.4608H38.9224V31.9177C38.9224 26.9608 42.9526 22.9307 47.9095 22.9307H90.9914C95.9483 22.9307 99.9785 26.9608 99.9785 31.9177V34.4608H100Z" stroke="#262626" stroke-width="1.72414" stroke-miterlimit="10" stroke-linecap="round" stroke-linejoin="round"/>
<path d="M91.2284 22.9307H47.694V22.7368C47.694 18.4695 51.1423 15.0212 55.4095 15.0212H83.5345C87.8017 15.0212 91.25 18.4695 91.25 22.7368V22.9307H91.2284Z" fill="white"/>
<path d="M91.2284 22.9307H47.694V22.7368C47.694 18.4695 51.1423 15.0212 55.4095 15.0212H83.5345C87.8017 15.0212 91.25 18.4695 91.25 22.7368V22.9307H91.2284Z" stroke="#262626" stroke-width="1.72414" stroke-miterlimit="10" stroke-linecap="round" stroke-linejoin="round"/>
<path d="M88.2328 74.224L91.1207 53.3188H48.1251L51.013 74.224H88.2328Z" fill="white"/>
<path d="M88.2328 74.224L91.1207 53.3188H48.1251L51.013 74.224H88.2328Z" stroke="#262626" stroke-width="1.72414" stroke-miterlimit="10" stroke-linecap="round" stroke-linejoin="round"/>
</g>
<path d="M68.4148 82.0483H31.5853C23.9764 82.0483 17.8168 75.9101 17.8168 68.3012V68.2799C17.8168 66.9372 18.9038 65.8289 20.2679 65.8289H79.7535C81.0962 65.8289 82.2045 66.9371 82.2045 68.3012V68.2799C82.1832 75.8888 76.0236 82.0483 68.4148 82.0483Z" fill="#EAA772"/>
<g opacity="0.25">
<path d="M31.6705 68.3012C31.6705 66.9371 32.7575 65.8289 34.1216 65.8289H20.2679C18.9251 65.8289 17.8168 66.9372 17.8168 68.2799V68.3012C17.8168 75.9101 23.9764 82.0483 31.5853 82.0483H45.439C37.8301 82.0483 31.6705 75.9101 31.6705 68.3012Z" fill="#EAA772"/>
<path d="M17.8594 68.429H82.1192C81.8848 67.1502 80.9044 66.1698 79.7321 66.1698H20.2678C19.0956 66.1485 18.1152 67.1289 17.8594 68.429Z" fill="#EAA772"/>
</g>
<path d="M68.4148 82.0483H31.5853C23.9764 82.0483 17.8168 75.9101 17.8168 68.3012V68.2799C17.8168 66.9372 18.9038 65.8289 20.2679 65.8289H79.7535C81.0962 65.8289 82.2045 66.9371 82.2045 68.3012V68.2799C82.1832 75.8888 76.0236 82.0483 68.4148 82.0483Z" stroke="#442F2F" stroke-width="1.70507" stroke-miterlimit="10" stroke-linecap="round" stroke-linejoin="round"/>
<path d="M52.5789 17.2983H47.2719C30.9672 17.2983 17.8381 26.3991 17.8381 37.3755V37.3542C17.8381 39.72 20.5876 41.5956 24.0829 41.5956H75.7892C79.2846 41.5956 82.2045 39.72 82.2045 37.3542C82.1832 26.3991 68.8836 17.2983 52.5789 17.2983Z" fill="#EAA772"/>
<path d="M52.5789 17.2983H47.2719C30.9672 17.2983 17.8381 26.3991 17.8381 37.3755V37.3542C17.8381 39.72 20.5876 41.5956 24.0829 41.5956H75.7892C79.2846 41.5956 82.2045 39.72 82.2045 37.3542C82.1832 26.3991 68.8836 17.2983 52.5789 17.2983Z" fill="#EAA772"/>
<g opacity="0.3">
<path d="M56.9056 17.5327C55.4989 17.3835 54.0496 17.3196 52.5576 17.3196H47.2506C30.9459 17.3196 17.8168 26.4204 17.8168 37.3968C17.8168 39.7412 20.5663 41.6168 24.0616 41.6168H32.4378V38.0149C34.4199 27.1024 43.1158 18.9394 56.9056 17.5327Z" fill="#EAA772"/>
</g>
<path d="M52.5789 17.2983H47.2719C30.9672 17.2983 17.8381 26.3991 17.8381 37.3755V37.3542C17.8381 39.72 20.5876 41.5956 24.0829 41.5956H75.7892C79.2846 41.5956 82.2045 39.72 82.2045 37.3542C82.1832 26.3991 68.8836 17.2983 52.5789 17.2983Z" stroke="#442F2F" stroke-width="1.70507" stroke-miterlimit="10" stroke-linecap="round" stroke-linejoin="round"/>
<path d="M83.4833 58.8805C83.4833 62.7169 80.3716 65.8287 76.5351 65.8287H23.4862C19.6498 65.8287 16.538 62.7169 16.538 58.8805C16.538 55.0441 19.6498 51.9324 23.4862 51.9324H76.5351C80.3716 51.9324 83.4833 55.0441 83.4833 58.8805Z" fill="#5B3E40"/>
<g opacity="0.6">
<path d="M20.14 61.0332C20.4107 61.0332 20.6302 60.8137 20.6302 60.5429C20.6302 60.2722 20.4107 60.0527 20.14 60.0527C19.8693 60.0527 19.6498 60.2722 19.6498 60.5429C19.6498 60.8137 19.8693 61.0332 20.14 61.0332Z" fill="#442F2F"/>
<path d="M23.4436 63.2285C23.7143 63.2285 23.9338 63.009 23.9338 62.7383C23.9338 62.4675 23.7143 62.248 23.4436 62.248C23.1728 62.248 22.9534 62.4675 22.9534 62.7383C22.9534 63.009 23.1728 63.2285 23.4436 63.2285Z" fill="#442F2F"/>
<path d="M21.3548 63.2285C21.6256 63.2285 21.845 63.009 21.845 62.7383C21.845 62.4675 21.6256 62.248 21.3548 62.248C21.0841 62.248 20.8646 62.4675 20.8646 62.7383C20.8646 63.009 21.0841 63.2285 21.3548 63.2285Z" fill="#442F2F"/>
<path d="M20.14 59.3496C20.4107 59.3496 20.6302 59.1301 20.6302 58.8593C20.6302 58.5886 20.4107 58.3691 20.14 58.3691C19.8693 58.3691 19.6498 58.5886 19.6498 58.8593C19.6498 59.1301 19.8693 59.3496 20.14 59.3496Z" fill="#442F2F"/>
<path d="M22.9533 60.5429C23.2241 60.5429 23.4436 60.3234 23.4436 60.0527C23.4436 59.782 23.2241 59.5625 22.9533 59.5625C22.6826 59.5625 22.4631 59.782 22.4631 60.0527C22.4631 60.3234 22.6826 60.5429 22.9533 60.5429Z" fill="#442F2F"/>
<path d="M30.6261 62.0136C30.8969 62.0136 31.1163 61.7941 31.1163 61.5234C31.1163 61.2527 30.8969 61.0332 30.6261 61.0332C30.3554 61.0332 30.1359 61.2527 30.1359 61.5234C30.1359 61.7941 30.3554 62.0136 30.6261 62.0136Z" fill="#442F2F"/>
<path d="M39.6417 61.0332C39.9124 61.0332 40.1319 60.8137 40.1319 60.5429C40.1319 60.2722 39.9124 60.0527 39.6417 60.0527C39.371 60.0527 39.1515 60.2722 39.1515 60.5429C39.1515 60.8137 39.371 61.0332 39.6417 61.0332Z" fill="#442F2F"/>
<path d="M73.7857 63.2285C74.0565 63.2285 74.276 63.009 74.276 62.7383C74.276 62.4675 74.0565 62.248 73.7857 62.248C73.515 62.248 73.2955 62.4675 73.2955 62.7383C73.2955 63.009 73.515 63.2285 73.7857 63.2285Z" fill="#442F2F"/>
<path d="M70.7593 63.2285C71.03 63.2285 71.2495 63.009 71.2495 62.7383C71.2495 62.4675 71.03 62.248 70.7593 62.248C70.4885 62.248 70.269 62.4675 70.269 62.7383C70.269 63.009 70.4885 63.2285 70.7593 63.2285Z" fill="#442F2F"/>
<path d="M68.8836 63.2285C69.1544 63.2285 69.3739 63.009 69.3739 62.7383C69.3739 62.4675 69.1544 62.248 68.8836 62.248C68.6129 62.248 68.3934 62.4675 68.3934 62.7383C68.3934 63.009 68.6129 63.2285 68.8836 63.2285Z" fill="#442F2F"/>
<path d="M69.8641 62.0136C70.1348 62.0136 70.3543 61.7941 70.3543 61.5234C70.3543 61.2527 70.1348 61.0332 69.8641 61.0332C69.5934 61.0332 69.3739 61.2527 69.3739 61.5234C69.3739 61.7941 69.5934 62.0136 69.8641 62.0136Z" fill="#442F2F"/>
<path d="M78.8796 59.3496C79.1503 59.3496 79.3698 59.1301 79.3698 58.8593C79.3698 58.5886 79.1503 58.3691 78.8796 58.3691C78.6089 58.3691 78.3894 58.5886 78.3894 58.8593C78.3894 59.1301 78.6089 59.3496 78.8796 59.3496Z" fill="#442F2F"/>
<path d="M78.3894 62.0136C78.6601 62.0136 78.8796 61.7941 78.8796 61.5234C78.8796 61.2527 78.6601 61.0332 78.3894 61.0332C78.1186 61.0332 77.8992 61.2527 77.8992 61.5234C77.8992 61.7941 78.1186 62.0136 78.3894 62.0136Z" fill="#442F2F"/>
<path d="M74.2759 58.8593C74.5466 58.8593 74.7661 58.6399 74.7661 58.3691C74.7661 58.0984 74.5466 57.8789 74.2759 57.8789C74.0051 57.8789 73.7856 58.0984 73.7856 58.3691C73.7856 58.6399 74.0051 58.8593 74.2759 58.8593Z" fill="#442F2F"/>
<path d="M56.735 63.2285C57.0058 63.2285 57.2252 63.009 57.2252 62.7383C57.2252 62.4675 57.0058 62.248 56.735 62.248C56.4643 62.248 56.2448 62.4675 56.2448 62.7383C56.2448 63.009 56.4643 63.2285 56.735 63.2285Z" fill="#442F2F"/>
<path d="M52.3658 63.2285C52.6366 63.2285 52.856 63.009 52.856 62.7383C52.856 62.4675 52.6366 62.248 52.3658 62.248C52.0951 62.248 51.8756 62.4675 51.8756 62.7383C51.8756 63.009 52.0951 63.2285 52.3658 63.2285Z" fill="#442F2F"/>
<path d="M54.0921 63.2285C54.3629 63.2285 54.5823 63.009 54.5823 62.7383C54.5823 62.4675 54.3629 62.248 54.0921 62.248C53.8214 62.248 53.6019 62.4675 53.6019 62.7383C53.6019 63.009 53.8214 63.2285 54.0921 63.2285Z" fill="#442F2F"/>
<path d="M47.5276 63.2285C47.7984 63.2285 48.0178 63.009 48.0178 62.7383C48.0178 62.4675 47.7984 62.248 47.5276 62.248C47.2569 62.248 47.0374 62.4675 47.0374 62.7383C47.0374 63.009 47.2569 63.2285 47.5276 63.2285Z" fill="#442F2F"/>
<path d="M45.4389 62.4826C45.7097 62.4826 45.9291 62.2631 45.9291 61.9924C45.9291 61.7217 45.7097 61.5022 45.4389 61.5022C45.1682 61.5022 44.9487 61.7217 44.9487 61.9924C44.9487 62.2631 45.1682 62.4826 45.4389 62.4826Z" fill="#442F2F"/>
<path d="M38.9597 62.9728C39.2304 62.9728 39.4499 62.7534 39.4499 62.4826C39.4499 62.2119 39.2304 61.9924 38.9597 61.9924C38.689 61.9924 38.4695 62.2119 38.4695 62.4826C38.4695 62.7534 38.689 62.9728 38.9597 62.9728Z" fill="#442F2F"/>
</g>
<g opacity="0.15">
<path d="M30.0294 62.0775V55.6835C30.0294 53.6161 31.7132 51.9324 33.7806 51.9324H23.4649C19.6285 51.9324 16.5167 55.0441 16.5167 58.8805C16.5167 62.7169 19.6285 65.8287 23.4649 65.8287H33.8019C31.7132 65.8287 30.0294 64.1449 30.0294 62.0775Z" fill="#5B3E40"/>
<path d="M76.5138 52.998H23.4862C19.6498 52.998 16.538 56.1098 16.538 59.9462C16.538 60.0528 16.538 60.138 16.538 60.2446C18.0939 59.861 20.1613 59.4986 22.2074 59.4986C24.2961 59.4986 25.2552 59.861 26.3848 60.2872C27.5784 60.7348 28.9211 61.225 31.4574 61.225C33.9937 61.225 35.3364 60.7135 36.53 60.2872C37.6596 59.861 38.6187 59.4986 40.7074 59.4986C42.7961 59.4986 43.7552 59.861 44.8848 60.2872C46.0784 60.7348 47.4211 61.225 49.9574 61.225C52.4937 61.225 53.8364 60.7135 55.03 60.2659C56.1596 59.8396 57.1187 59.4773 59.2074 59.4773C61.2961 59.4773 62.2552 59.8396 63.3848 60.2659C64.5783 60.7135 65.9211 61.225 68.4574 61.225C70.9937 61.225 72.3364 60.7135 73.53 60.2659C74.6596 59.8396 75.6187 59.4773 77.7074 59.4773C79.7748 59.4773 80.7339 59.8396 81.8422 60.2659C82.3111 60.4364 82.8439 60.6495 83.462 60.7987C83.5046 60.5217 83.5259 60.2233 83.5259 59.9249C83.4833 56.1098 80.3716 52.998 76.5138 52.998Z" fill="#5B3E40"/>
</g>
<path d="M83.4833 58.8805C83.4833 62.7169 80.3716 65.8287 76.5351 65.8287H23.4862C19.6498 65.8287 16.538 62.7169 16.538 58.8805C16.538 55.0441 19.6498 51.9324 23.4862 51.9324H76.5351C80.3716 51.9324 83.4833 55.0441 83.4833 58.8805Z" stroke="#442F2F" stroke-width="1.70507" stroke-miterlimit="10" stroke-linecap="round" stroke-linejoin="round"/>
<path d="M82.1832 50.3765C82.1832 51.2291 81.5012 51.9111 80.6486 51.9111H19.3514C18.4989 51.9111 17.8168 51.2291 17.8168 50.3765V46.7746C17.8168 45.922 18.4989 45.24 19.3514 45.24H80.6273C81.4799 45.24 82.1619 45.922 82.1619 46.7746V50.3765H82.1832Z" fill="#D83634"/>
<path d="M82.1832 50.3765C82.1832 51.2291 81.5012 51.9111 80.6486 51.9111H19.3514C18.4989 51.9111 17.8168 51.2291 17.8168 50.3765V46.7746C17.8168 45.922 18.4989 45.24 19.3514 45.24H80.6273C81.4799 45.24 82.1619 45.922 82.1619 46.7746V50.3765H82.1832Z" fill="#D83634"/>
<path opacity="0.3" d="M29.5179 50.3765V46.7746C29.5179 45.922 30.1999 45.24 31.0524 45.24H19.3514C18.4989 45.24 17.8168 45.922 17.8168 46.7746V50.3765C17.8168 51.2291 18.4989 51.9111 19.3514 51.9111H31.0524C30.1999 51.9324 29.5179 51.2291 29.5179 50.3765Z" fill="#D83634"/>
<path opacity="0.2" d="M59.25 45.2188H54.4119V51.9111H59.25V45.2188Z" fill="white"/>
<path opacity="0.2" d="M62.1486 45.2188H60.7419V51.9111H62.1486V45.2188Z" fill="white"/>
<path d="M82.1832 50.3765C82.1832 51.2291 81.5012 51.9111 80.6486 51.9111H19.3514C18.4989 51.9111 17.8168 51.2291 17.8168 50.3765V46.7746C17.8168 45.922 18.4989 45.24 19.3514 45.24H80.6273C81.4799 45.24 82.1619 45.922 82.1619 46.7746V50.3765H82.1832Z" stroke="#442F2F" stroke-width="1.70507" stroke-miterlimit="10" stroke-linecap="round" stroke-linejoin="round"/>
<path d="M13.0213 49.9076C15.4297 44.899 21.4401 41.6167 28.1325 41.6167H71.8888C78.5812 41.6167 84.5703 44.9203 87 49.9076C82.375 49.9076 82.375 45.7941 77.75 45.7941C73.125 45.7941 73.125 49.9076 68.5 49.9076C63.875 49.9076 63.875 45.7941 59.25 45.7941C54.625 45.7941 54.625 49.9076 50 49.9076C45.375 49.9076 45.375 45.7941 40.75 45.7941C36.125 45.7941 36.125 49.9076 31.5 49.9076C26.875 49.9076 26.875 45.7941 22.25 45.7941C17.625 45.7941 17.6463 49.9076 13.0213 49.9076Z" fill="#8DC838"/>
<path d="M78.5812 42.8317C76.0236 41.5315 75.0432 41.5955 71.8675 41.5955H32.7362H31.6705H28.1112C21.4188 41.5955 15.4297 44.899 13 49.8864C17.625 49.8864 17.625 45.7729 22.25 45.7729C25.2126 45.7729 27.5783 48.2452 29.1768 49.4601L29.6884 48.8847C30.6475 47.7977 31.3934 46.5402 31.905 45.1974C32.4591 43.7908 33.8018 42.853 35.3151 42.853L78.5812 42.8317Z" fill="#73B727"/>
<path d="M13.0213 49.9076C15.4297 44.899 21.4401 41.6167 28.1325 41.6167H71.8888C78.5812 41.6167 84.5703 44.9203 87 49.9076C82.375 49.9076 82.375 45.7941 77.75 45.7941C73.125 45.7941 73.125 49.9076 68.5 49.9076C63.875 49.9076 63.875 45.7941 59.25 45.7941C54.625 45.7941 54.625 49.9076 50 49.9076C45.375 49.9076 45.375 45.7941 40.75 45.7941C36.125 45.7941 36.125 49.9076 31.5 49.9076C26.875 49.9076 26.875 45.7941 22.25 45.7941C17.625 45.7941 17.6463 49.9076 13.0213 49.9076Z" stroke="#442F2F" stroke-width="1.70507" stroke-miterlimit="10" stroke-linecap="round" stroke-linejoin="round"/>
<path d="M13.4689 56.6001C13.2558 57.5806 14.3641 58.4118 15.4937 58.1134C17.2627 57.6445 19.735 57.133 22.2074 57.133C26.8324 57.133 26.8324 58.8594 31.4574 58.8594C36.0824 58.8594 36.0824 57.133 40.7074 57.133C45.3324 57.133 45.3324 58.8594 49.9574 58.8594C54.5824 58.8594 54.5824 57.133 59.2074 57.133C63.8324 57.133 63.8324 58.8594 68.4574 58.8594C73.0824 58.8594 73.0824 57.133 77.6861 57.133C81.4159 57.133 82.0766 58.2626 84.6768 58.6889C85.7638 58.8807 86.7442 58.0494 86.5311 57.133L86.3393 56.728C84.9539 53.8081 81.5864 51.8899 77.8566 51.8899H21.8877C18.2218 51.9325 14.9182 53.7655 13.4689 56.6001Z" fill="#FBB03B"/>
<path d="M83.2488 53.4243C81.7143 52.4865 79.8387 51.9324 77.8352 51.9324H32.6296H31.0524H29.6884H21.8877C18.2218 51.9324 14.8969 53.7653 13.4689 56.6213C13.2558 57.6017 14.3641 58.4329 15.4937 58.1346C17.2627 57.6657 19.735 57.1541 22.2074 57.1541C24.4666 57.1541 25.6175 57.5591 26.7471 57.9854L27.1734 57.6444C27.7702 57.1755 28.4522 56.3655 29.0276 55.577C30.0294 54.2129 31.6279 53.4243 33.3116 53.4243H83.2488Z" fill="#F99A29"/>
<path d="M13.4689 56.6001C13.2558 57.5806 14.3641 58.4118 15.4937 58.1134C17.2627 57.6445 19.735 57.133 22.2074 57.133C26.8324 57.133 26.8324 58.8594 31.4574 58.8594C36.0824 58.8594 36.0824 57.133 40.7074 57.133C45.3324 57.133 45.3324 58.8594 49.9574 58.8594C54.5824 58.8594 54.5824 57.133 59.2074 57.133C63.8324 57.133 63.8324 58.8594 68.4574 58.8594C73.0824 58.8594 73.0824 57.133 77.6861 57.133C81.4159 57.133 82.0766 58.2626 84.6768 58.6889C85.7638 58.8807 86.7442 58.0494 86.5311 57.133L86.3393 56.728C84.9539 53.8081 81.5864 51.8899 77.8566 51.8899H21.8877C18.2218 51.9325 14.9182 53.7655 13.4689 56.6001Z" stroke="#442F2F" stroke-width="1.70507" stroke-miterlimit="10" stroke-linecap="round" stroke-linejoin="round"/>
<path d="M32.4378 75.8674C31.1163 75.8674 30.0294 74.8018 30.0294 73.459V65.8289H34.8249V73.459C34.8462 74.7805 33.7592 75.8674 32.4378 75.8674Z" stroke="#442F2F" stroke-width="1.70507" stroke-miterlimit="10" stroke-linecap="round" stroke-linejoin="round"/>
<path d="M32.4378 75.8674C31.1163 75.8674 30.0294 74.8018 30.0294 73.459V65.8289H34.8249V73.459C34.8462 74.7805 33.7592 75.8674 32.4378 75.8674Z" fill="#D83634"/>
<path d="M40.6221 71.0078C39.5565 71.0078 38.6826 70.134 38.6826 69.0683V65.8074H42.5403V69.0683C42.5617 70.1553 41.6878 71.0078 40.6221 71.0078Z" fill="#D83634"/>
<path d="M40.6221 71.0078C39.5565 71.0078 38.6826 70.134 38.6826 69.0683V65.8074H42.5403V69.0683C42.5617 70.1553 41.6878 71.0078 40.6221 71.0078Z" stroke="#442F2F" stroke-width="1.70507" stroke-miterlimit="10" stroke-linecap="round" stroke-linejoin="round"/>
<path d="M32.4378 75.8674C31.1163 75.8674 30.0294 74.8018 30.0294 73.459V65.8289H34.8249V73.459C34.8462 74.7805 33.7592 75.8674 32.4378 75.8674Z" stroke="#442F2F" stroke-width="1.70507" stroke-miterlimit="10" stroke-linecap="round" stroke-linejoin="round"/>
<path d="M64.0028 77.3168C62.0207 77.3168 60.4009 75.6969 60.4009 73.7148V65.8289H67.6048V73.7148C67.6048 75.7183 66.0063 77.3168 64.0028 77.3168Z" fill="#D83634"/>
<path d="M64.0028 77.3168C62.0207 77.3168 60.4009 75.6969 60.4009 73.7148V65.8289H67.6048V73.7148C67.6048 75.7183 66.0063 77.3168 64.0028 77.3168Z" stroke="#442F2F" stroke-width="1.70507" stroke-miterlimit="10" stroke-linecap="round" stroke-linejoin="round"/>
<path d="M27.0881 73.3949C27.5119 73.3949 27.8554 73.0514 27.8554 72.6276C27.8554 72.2039 27.5119 71.8604 27.0881 71.8604C26.6644 71.8604 26.3209 72.2039 26.3209 72.6276C26.3209 73.0514 26.6644 73.3949 27.0881 73.3949Z" fill="#442F2F"/>
<path d="M70.4822 77.7429C70.7176 77.7429 70.9084 77.5521 70.9084 77.3166C70.9084 77.0812 70.7176 76.8904 70.4822 76.8904C70.2468 76.8904 70.0559 77.0812 70.0559 77.3166C70.0559 77.5521 70.2468 77.7429 70.4822 77.7429Z" fill="#442F2F"/>
<path d="M49.1688 77.4233C49.3453 77.4233 49.4885 77.2802 49.4885 77.1036C49.4885 76.9271 49.3453 76.7839 49.1688 76.7839C48.9922 76.7839 48.8491 76.9271 48.8491 77.1036C48.8491 77.2802 48.9922 77.4233 49.1688 77.4233Z" fill="#442F2F"/>
<path d="M46.5472 72.7557C47.0063 72.7557 47.3784 72.3836 47.3784 71.9245C47.3784 71.4654 47.0063 71.0933 46.5472 71.0933C46.0882 71.0933 45.716 71.4654 45.716 71.9245C45.716 72.3836 46.0882 72.7557 46.5472 72.7557Z" fill="#442F2F"/>
<path d="M40.9631 76.3362C41.1397 76.3362 41.2828 76.193 41.2828 76.0165C41.2828 75.8399 41.1397 75.6968 40.9631 75.6968C40.7866 75.6968 40.6434 75.8399 40.6434 76.0165C40.6434 76.193 40.7866 76.3362 40.9631 76.3362Z" fill="#442F2F"/>
<path d="M55.6267 75.2279C56.3448 75.2279 56.9268 74.6458 56.9268 73.9278C56.9268 73.2098 56.3448 72.6277 55.6267 72.6277C54.9087 72.6277 54.3266 73.2098 54.3266 73.9278C54.3266 74.6458 54.9087 75.2279 55.6267 75.2279Z" fill="#442F2F"/>
<path d="M71.4839 72.8835C71.8134 72.8835 72.0806 72.6163 72.0806 72.2867C72.0806 71.9571 71.8134 71.6899 71.4839 71.6899C71.1543 71.6899 70.8871 71.9571 70.8871 72.2867C70.8871 72.6163 71.1543 72.8835 71.4839 72.8835Z" fill="#442F2F"/>
<path d="M52.0035 71.4342C52.2507 71.4342 52.4511 71.2338 52.4511 70.9866C52.4511 70.7394 52.2507 70.5391 52.0035 70.5391C51.7563 70.5391 51.5559 70.7394 51.5559 70.9866C51.5559 71.2338 51.7563 71.4342 52.0035 71.4342Z" fill="#442F2F"/>
<path d="M34.633 27.4222C35.0921 27.4222 35.4643 27.0501 35.4643 26.591C35.4643 26.1319 35.0921 25.7598 34.633 25.7598C34.174 25.7598 33.8018 26.1319 33.8018 26.591C33.8018 27.0501 34.174 27.4222 34.633 27.4222Z" fill="#442F2F"/>
<path d="M47.3785 30.6192C47.8375 30.6192 48.2097 30.2471 48.2097 29.788C48.2097 29.3289 47.8375 28.9568 47.3785 28.9568C46.9194 28.9568 46.5472 29.3289 46.5472 29.788C46.5472 30.2471 46.9194 30.6192 47.3785 30.6192Z" fill="#442F2F"/>
<path d="M52.1739 33.0488C52.4094 33.0488 52.6002 32.858 52.6002 32.6226C52.6002 32.3871 52.4094 32.1963 52.1739 32.1963C51.9385 32.1963 51.7477 32.3871 51.7477 32.6226C51.7477 32.858 51.9385 33.0488 52.1739 33.0488Z" fill="#442F2F"/>
<path d="M67.4131 28.2322C67.7662 28.2322 68.0525 27.9459 68.0525 27.5928C68.0525 27.2396 67.7662 26.9534 67.4131 26.9534C67.06 26.9534 66.7737 27.2396 66.7737 27.5928C66.7737 27.9459 67.06 28.2322 67.4131 28.2322Z" fill="#442F2F"/>
<path d="M51.7477 23.7775C52.4657 23.7775 53.0478 23.1954 53.0478 22.4774C53.0478 21.7593 52.4657 21.1772 51.7477 21.1772C51.0297 21.1772 50.4476 21.7593 50.4476 22.4774C50.4476 23.1954 51.0297 23.7775 51.7477 23.7775Z" fill="#442F2F"/>
<path d="M61.7011 26.1221C62.2543 26.1221 62.7028 25.6736 62.7028 25.1204C62.7028 24.5671 62.2543 24.1187 61.7011 24.1187C61.1478 24.1187 60.6993 24.5671 60.6993 25.1204C60.6993 25.6736 61.1478 26.1221 61.7011 26.1221Z" fill="#442F2F"/>
<path d="M40.1319 30.534C40.4144 30.534 40.6434 30.305 40.6434 30.0225C40.6434 29.74 40.4144 29.511 40.1319 29.511C39.8494 29.511 39.6204 29.74 39.6204 30.0225C39.6204 30.305 39.8494 30.534 40.1319 30.534Z" fill="#442F2F"/>
<path d="M55.6267 28.4453C56.0975 28.4453 56.4792 28.0636 56.4792 27.5928C56.4792 27.1219 56.0975 26.7402 55.6267 26.7402C55.1559 26.7402 54.7742 27.1219 54.7742 27.5928C54.7742 28.0636 55.1559 28.4453 55.6267 28.4453Z" fill="#442F2F"/>
<path d="M45.8013 24.4382C45.9778 24.4382 46.121 24.2951 46.121 24.1185C46.121 23.942 45.9778 23.7988 45.8013 23.7988C45.6247 23.7988 45.4816 23.942 45.4816 24.1185C45.4816 24.2951 45.6247 24.4382 45.8013 24.4382Z" fill="#442F2F"/>
<path d="M36.5939 33.4966C36.7704 33.4966 36.9136 33.3534 36.9136 33.1769C36.9136 33.0003 36.7704 32.8572 36.5939 32.8572C36.4173 32.8572 36.2742 33.0003 36.2742 33.1769C36.2742 33.3534 36.4173 33.4966 36.5939 33.4966Z" fill="#442F2F"/>
<path d="M71.2707 28.5944C71.3649 28.5944 71.4412 28.5181 71.4412 28.4239C71.4412 28.3298 71.3649 28.2534 71.2707 28.2534C71.1766 28.2534 71.1002 28.3298 71.1002 28.4239C71.1002 28.5181 71.1766 28.5944 71.2707 28.5944Z" fill="#442F2F"/>
<path d="M40.6434 24.0972C40.82 24.0972 40.9631 23.954 40.9631 23.7775C40.9631 23.6009 40.82 23.4578 40.6434 23.4578C40.4669 23.4578 40.3237 23.6009 40.3237 23.7775C40.3237 23.954 40.4669 24.0972 40.6434 24.0972Z" fill="#442F2F"/>
<path d="M64.5996 33.0488C64.7762 33.0488 64.9193 32.9057 64.9193 32.7291C64.9193 32.5526 64.7762 32.4094 64.5996 32.4094C64.423 32.4094 64.2799 32.5526 64.2799 32.7291C64.2799 32.9057 64.423 33.0488 64.5996 33.0488Z" fill="#442F2F"/>
<path d="M59.5484 30.0437C59.6896 30.0437 59.8041 29.9292 59.8041 29.788C59.8041 29.6467 59.6896 29.5322 59.5484 29.5322C59.4071 29.5322 59.2926 29.6467 59.2926 29.788C59.2926 29.9292 59.4071 30.0437 59.5484 30.0437Z" fill="#442F2F"/>
<path d="M19.6924 21.1772L21.3975 22.4774" stroke="#F7931E" stroke-width="0.852535" stroke-miterlimit="10" stroke-linecap="round" stroke-linejoin="round"/>
<path d="M21.6106 18.5132L23.2091 20.9642" stroke="#F7931E" stroke-width="0.852535" stroke-miterlimit="10" stroke-linecap="round" stroke-linejoin="round"/>
<path d="M25.1699 17V19.9412" stroke="#F7931E" stroke-width="0.852535" stroke-miterlimit="10" stroke-linecap="round" stroke-linejoin="round"/>
</g>
<defs>
<clipPath id="clip0_237_5173">
<rect width="100" height="100" fill="white"/>
</clipPath>
<clipPath id="clip1_237_5173">
<rect width="101" height="101" fill="white" transform="translate(-1 -1)"/>
</clipPath>
</defs>
</svg>
