<svg width="100" height="100" viewBox="0 0 100 100" fill="none" xmlns="http://www.w3.org/2000/svg">
<g clip-path="url(#clip0_237_4560)">
<path d="M100 0H0V100H100V0Z" fill="#FCFCFC"/>
<path d="M69.9824 16.6399C63.4648 6.83422 38.9156 9.12767 36.8094 15.5399C35.885 18.3716 39.957 20.1502 38.8805 23.4968C37.6168 27.4284 31.4385 26.7263 20.7553 34.7534C18.9416 36.1224 7.88391 44.4186 8.00092 55.5699C8.10623 65.9723 16.7183 76.1524 26.0559 78.1299C35.6159 80.1542 39.3369 72.2559 49.0372 74.1632C61.1012 76.5502 62.5287 89.7843 69.8303 89.7843C83.9771 89.796 98.6973 39.82 88.6576 33.3258C84.6909 30.7633 78.3722 35.9703 73.9374 32.2259C69.6548 28.6219 73.6683 22.1746 69.9824 16.6399Z" fill="#E4EFEF"/>
<path d="M41.4548 80.3881C39.8634 82.1316 40.8697 85.0569 42.9408 86.695C44.6492 88.0524 47.5277 88.8832 49.5637 87.8886C52.1029 86.6599 52.3603 83.0794 50.0669 80.8912C47.7266 78.6446 43.2567 78.3989 41.4548 80.3881Z" fill="#E4EFEF"/>
<path d="M25.2603 17.9035C23.2594 18.4535 22.7328 24.0584 24.0901 25.1583C27.776 28.1304 30.362 25.2402 28.7706 21.1799C28.0452 19.3194 26.5123 17.5525 25.2603 17.9035Z" fill="#E4EFEF"/>
<path d="M76.8861 22.1277C74.8852 22.35 74.3587 24.5849 75.716 25.0296C79.4019 26.2114 81.9879 25.0647 80.3965 23.4382C79.671 22.701 78.1382 21.9989 76.8861 22.1277Z" fill="#E4EFEF"/>
<path d="M34.0245 69.4358C34.0245 69.4358 33.0767 70.5123 38.0849 75.5087C38.0849 73.578 37.4998 71.3899 40.1677 70.5474C36.9615 70.1145 34.0245 69.4358 34.0245 69.4358Z" stroke="#272130" stroke-width="0.702075" stroke-miterlimit="10" stroke-linecap="round" stroke-linejoin="round"/>
<path d="M34.0245 69.4358C34.0245 69.4358 33.0767 70.5123 38.0849 75.5087C38.0849 73.578 37.4998 71.3899 40.1677 70.5474C36.9615 70.1145 34.0245 69.4358 34.0245 69.4358Z" fill="#372E42"/>
<path d="M57.3685 67.973C57.3685 67.973 61.1831 69.307 62.9383 69.307C64.6934 69.307 66.0976 68.64 66.0976 68.64L64.3424 67.973C66.9167 67.973 68.8474 66.0306 68.8474 66.0306L66.7997 65.5626C69.3154 65.1296 70.4271 62.5202 70.4271 62.5202C69.959 62.5202 66.6125 61.982 66.6125 61.198C63.5935 64.2169 58.9013 67.3528 57.3685 67.973Z" fill="#372E42"/>
<path opacity="0.83" d="M66.6125 61.198C63.5935 64.2169 58.9013 67.3528 57.3685 67.973C57.3685 67.973 60.0481 68.9091 61.9437 69.2133C62.283 68.7921 62.5989 68.4177 62.7978 68.2187C63.4063 67.6103 65.9455 67.2475 65.9455 66.5221C65.9455 65.7966 65.3253 65.4338 66.8114 64.6031C68.2974 63.7723 68.1453 63.0936 68.1453 63.0936L68.3091 62.1575C67.4432 61.9118 66.6125 61.5841 66.6125 61.198Z" fill="#2D2638"/>
<path d="M60.2353 66.5222C60.2353 66.5222 61.3703 67.7976 62.1894 67.7976" stroke="#272130" stroke-width="0.46805" stroke-miterlimit="10" stroke-linecap="round" stroke-linejoin="round"/>
<path d="M65.0328 66.5224C63.5467 66.5224 62.7979 64.8374 62.7979 64.8374" stroke="#272130" stroke-width="0.46805" stroke-miterlimit="10" stroke-linecap="round" stroke-linejoin="round"/>
<path d="M65.0328 63.5735C65.0328 63.5735 65.4657 63.5735 66.8699 63.5735" stroke="#272130" stroke-width="0.46805" stroke-miterlimit="10" stroke-linecap="round" stroke-linejoin="round"/>
<path d="M57.3685 67.973C57.3685 67.973 61.1831 69.307 62.9383 69.307C64.6934 69.307 66.0976 68.64 66.0976 68.64L64.3424 67.973C66.9167 67.973 68.8474 66.0306 68.8474 66.0306L66.7997 65.5626C69.3154 65.1296 70.4271 62.5202 70.4271 62.5202C69.959 62.5202 66.6125 61.982 66.6125 61.198C63.5935 64.2169 58.9013 67.3528 57.3685 67.973Z" stroke="#272130" stroke-width="0.702075" stroke-miterlimit="10" stroke-linecap="round" stroke-linejoin="round"/>
<path d="M26.2081 42.4527C28.3407 42.4527 30.0695 40.5668 30.0695 38.2403C30.0695 35.9138 28.3407 34.0278 26.2081 34.0278C24.0755 34.0278 22.3467 35.9138 22.3467 38.2403C22.3467 40.5668 24.0755 42.4527 26.2081 42.4527Z" fill="white"/>
<path d="M24.9561 40.0071C25.6992 40.0071 26.3017 39.3889 26.3017 38.6264C26.3017 37.8638 25.6992 37.2456 24.9561 37.2456C24.2129 37.2456 23.6104 37.8638 23.6104 38.6264C23.6104 39.3889 24.2129 40.0071 24.9561 40.0071Z" fill="#1E1826"/>
<path d="M24.6284 38.7667C24.958 38.7667 25.2251 38.4943 25.2251 38.1583C25.2251 37.8222 24.958 37.5498 24.6284 37.5498C24.2988 37.5498 24.0316 37.8222 24.0316 38.1583C24.0316 38.4943 24.2988 38.7667 24.6284 38.7667Z" fill="white"/>
<path d="M25.2954 39.5743C25.4182 39.5743 25.5177 39.4747 25.5177 39.352C25.5177 39.2292 25.4182 39.1296 25.2954 39.1296C25.1726 39.1296 25.0731 39.2292 25.0731 39.352C25.0731 39.4747 25.1726 39.5743 25.2954 39.5743Z" fill="white"/>
<path d="M26.2081 42.4527C28.3407 42.4527 30.0695 40.5668 30.0695 38.2403C30.0695 35.9138 28.3407 34.0278 26.2081 34.0278C24.0755 34.0278 22.3467 35.9138 22.3467 38.2403C22.3467 40.5668 24.0755 42.4527 26.2081 42.4527Z" stroke="#204751" stroke-width="0.702075" stroke-miterlimit="10" stroke-linecap="round" stroke-linejoin="round"/>
<path d="M46.1587 32.8811C46.1587 32.8811 49.6691 26.3752 58.6205 26.3752C57.3919 27.6039 57.3919 28.8325 57.3919 28.8325C57.3919 28.8325 60.6799 27.5688 63.535 28.4815C61.6043 30.4122 61.6043 31.4653 61.6043 31.4653C63.535 29.5346 67.6656 32.0152 68.3794 32.7407C64.5413 34.1449 65.653 34.3672 65.653 34.3672C65.653 34.3672 67.9698 34.3555 70.1813 36.567C67.9347 37.2574 65.3604 38.252 65.7583 41.1188C63.3712 38.9073 63.1723 36.9298 46.1587 32.8811Z" fill="#372E42"/>
<path opacity="0.83" d="M66.8231 38.1349L65.9572 36.6488C65.9572 36.6488 63.851 35.8297 62.8096 34.7883C61.7682 33.7469 61.2533 33.5831 60.247 32.5768C59.2407 31.5705 58.1525 31.3598 56.8068 31.3598C55.4612 31.3598 54.2326 30.061 53.5773 29.4057C53.2497 29.0781 51.4126 29.0781 49.6574 29.16C47.2235 30.9269 46.1704 32.881 46.1704 32.881C63.1723 36.9296 63.3712 38.9071 65.7466 41.107C65.5594 39.7613 66.0391 38.8252 66.8231 38.1349Z" fill="#2D2638"/>
<path d="M50.9562 33.3142C50.9562 33.3142 53.1327 30.4708 55.2974 29.406" stroke="#272130" stroke-width="0.46805" stroke-miterlimit="10" stroke-linecap="round" stroke-linejoin="round"/>
<path d="M54.4549 34.0279C54.4549 34.0279 56.3154 31.8514 60.247 30.459" stroke="#272130" stroke-width="0.46805" stroke-miterlimit="10" stroke-linecap="round" stroke-linejoin="round"/>
<path d="M58.1642 35.6894C58.1642 35.6894 60.4576 33.0332 64.4126 32.8811" stroke="#272130" stroke-width="0.46805" stroke-miterlimit="10" stroke-linecap="round" stroke-linejoin="round"/>
<path d="M61.2885 37.6082C61.2885 37.6082 64.5882 35.6892 66.8699 35.6892" stroke="#272130" stroke-width="0.46805" stroke-miterlimit="10" stroke-linecap="round" stroke-linejoin="round"/>
<path d="M46.1587 32.8811C46.1587 32.8811 49.6691 26.3752 58.6205 26.3752C57.3919 27.6039 57.3919 28.8325 57.3919 28.8325C57.3919 28.8325 60.6799 27.5688 63.535 28.4815C61.6043 30.4122 61.6043 31.4653 61.6043 31.4653C63.535 29.5346 67.6656 32.0152 68.3794 32.7407C64.5413 34.1449 65.653 34.3672 65.653 34.3672C65.653 34.3672 67.9698 34.3555 70.1813 36.567C67.9347 37.2574 65.3604 38.252 65.7583 41.1188C63.3712 38.9073 63.1723 36.9298 46.1587 32.8811Z" stroke="#272130" stroke-width="0.702075" stroke-miterlimit="10" stroke-linecap="round" stroke-linejoin="round"/>
<path d="M68.1687 47.1566C68.1687 47.1566 69.959 48.7246 72.7673 47.7417C75.5756 46.7588 82.6783 39.27 87.897 40.604C87.897 40.604 85.1706 43.0261 85.7908 46.3727C86.411 49.7309 84.1526 52.3754 84.1526 52.3754C84.1526 52.3754 86.0248 53.6274 84.1526 55.4996C82.2804 57.3718 79.203 56.8687 79.554 59.361C79.9051 61.8534 81.7422 61.9704 82.1283 64.1586C82.5144 66.3467 81.6603 71.2612 84.0005 72.3494C84.0005 72.3494 81.5081 76.948 74.4055 63.6086C71.1291 57.3952 70.2749 56.4357 68.1687 56.4357C67.4666 54.5635 68.1687 47.1566 68.1687 47.1566Z" fill="#372E42"/>
<path opacity="0.83" d="M68.1687 47.1566C68.1687 47.1566 67.4666 54.5634 68.1687 56.4356C70.2749 56.4356 71.1291 57.3951 74.4055 63.6085C74.4172 63.6319 74.4289 63.6553 74.4406 63.6787C75.2363 61.6661 75.2948 57.5941 75.2948 56.2367C75.2948 54.3996 77.4244 53.4518 77.869 50.8541C78.1265 49.3564 77.2372 47.0746 76.4298 45.4014C74.9203 46.5013 73.6332 47.4374 72.7556 47.7416C69.959 48.7245 68.1687 47.1566 68.1687 47.1566Z" fill="#2D2638"/>
<path d="M70.1696 51.1C70.1696 51.1 73.013 51.7553 76.8744 49.8948C80.7358 48.0343 81.4379 45.9866 83.1931 45.9866" stroke="#272130" stroke-width="0.46805" stroke-miterlimit="10" stroke-linecap="round" stroke-linejoin="round"/>
<path d="M70.0527 53.4752C70.0527 53.4752 73.1535 53.4752 76.6873 53.4752C80.2211 53.4752 82.4326 52.3987 82.4326 52.3987" stroke="#272130" stroke-width="0.46805" stroke-miterlimit="10" stroke-linecap="round" stroke-linejoin="round"/>
<path d="M70.0527 54.9848C70.0527 54.9848 74.6045 54.9146 77.8808 57.4889" stroke="#272130" stroke-width="0.46805" stroke-miterlimit="10" stroke-linecap="round" stroke-linejoin="round"/>
<path d="M69.5261 55.8506C69.5261 55.8506 76.0086 57.6175 79.6944 67.7976" stroke="#272130" stroke-width="0.46805" stroke-miterlimit="10" stroke-linecap="round" stroke-linejoin="round"/>
<path d="M68.1687 47.1566C68.1687 47.1566 69.959 48.7246 72.7673 47.7417C75.5756 46.7588 82.6783 39.27 87.897 40.604C87.897 40.604 85.1706 43.0261 85.7908 46.3727C86.411 49.7309 84.1526 52.3754 84.1526 52.3754C84.1526 52.3754 86.0248 53.6274 84.1526 55.4996C82.2804 57.3718 79.203 56.8687 79.554 59.361C79.9051 61.8534 81.7422 61.9704 82.1283 64.1586C82.5144 66.3467 81.6603 71.2612 84.0005 72.3494C84.0005 72.3494 81.5081 76.948 74.4055 63.6086C71.1291 57.3952 70.2749 56.4357 68.1687 56.4357C67.4666 54.5635 68.1687 47.1566 68.1687 47.1566Z" stroke="#272130" stroke-width="0.702075" stroke-miterlimit="10" stroke-linecap="round" stroke-linejoin="round"/>
<path d="M43.6078 32.5769C42.5196 32.5769 41.4431 32.6237 40.3899 32.7173L40.5304 32.7407C40.39 32.7407 40.2495 32.7407 40.1091 32.7407C39.0326 32.846 37.9795 32.9864 36.9615 33.1854V70.1262C39.0911 70.524 41.3143 70.7347 43.6078 70.7347C58.2811 70.7347 70.1696 62.1928 70.1696 51.6616C70.1696 41.1305 58.2811 32.5769 43.6078 32.5769Z" fill="#4DC1C4"/>
<path d="M52.3837 33.6416C60.832 36.836 66.6007 43.2015 66.6007 50.5265C66.6007 61.0576 53.8464 70.091 39.173 70.091C38.1316 70.091 38.7518 70.3367 37.7455 70.2548L36.9615 70.1144C39.0911 70.5122 41.3143 70.7228 43.6078 70.7228C58.2811 70.7228 70.1696 62.1809 70.1696 51.6498C70.1696 43.3185 62.7393 36.2393 52.3837 33.6416Z" fill="#23AFAB"/>
<path d="M43.6078 32.5769C42.5196 32.5769 41.4431 32.6237 40.3899 32.7173L40.5304 32.7407C40.39 32.7407 40.2495 32.7407 40.1091 32.7407C39.0326 32.846 37.9795 32.9864 36.9615 33.1854V70.1262C39.0911 70.524 41.3143 70.7347 43.6078 70.7347C58.2811 70.7347 70.1696 62.1928 70.1696 51.6616C70.1696 41.1305 58.2811 32.5769 43.6078 32.5769Z" stroke="#204751" stroke-width="0.702075" stroke-miterlimit="10" stroke-linecap="round" stroke-linejoin="round"/>
<path d="M40.1676 32.7405C38.5178 32.8926 36.9381 33.15 35.4052 33.5011C28.6419 35.5839 23.1306 42.3121 23.1306 49.5318L19.8075 49.1807C18.3448 49.0286 17.0577 50.1519 17.0577 51.6263C17.0577 51.638 17.0577 51.6497 17.0577 51.6497C17.0577 61.3383 27.1324 69.3537 40.1676 70.5589C43.912 65.3986 46.1587 58.8108 46.1587 51.6497C46.1587 44.4768 43.912 37.9007 40.1676 32.7405Z" fill="#4DC1C4"/>
<path d="M25.2954 46.8291C25.2954 46.8291 30.0812 48.8417 34.2936 48.8417C38.5061 48.8417 39.84 48.5258 40.3432 46.8993C40.3432 46.8993 40.5889 47.9875 40.156 48.8417C39.723 49.6959 38.0146 52.317 29.1802 50.515C20.3575 49.2396 23.6104 49.5789 23.6104 49.5789C23.6104 49.5789 23.4115 46.1387 25.2954 46.8291Z" fill="#23AFAB"/>
<path d="M27.6707 50.5265C27.6707 50.5265 31.6491 52.4572 35.6978 52.4572C38.0614 52.4572 39.9921 51.6147 40.7878 51.0998C43.1866 49.5319 41.5601 45.9396 40.7878 47.1565C40.3549 47.8352 39.6996 49.6606 39.2666 50.1052C38.8337 50.5499 32.7257 51.0998 31.9534 51.0998C31.1811 51.0998 27.6707 50.5265 27.6707 50.5265Z" fill="#23AFAB"/>
<path d="M25.4709 49.5317C25.4709 42.3238 30.9822 35.5956 37.7456 33.501C38.5997 33.3021 39.4656 33.1383 40.3432 32.9979C40.2847 32.9043 40.2145 32.8224 40.156 32.7288C40.156 32.7288 40.156 32.7288 40.1443 32.7288C38.5061 32.8809 36.9148 33.1383 35.3819 33.501C28.7005 35.5605 23.2243 42.16 23.1073 49.2743L25.4709 49.5317Z" fill="#23AFAB"/>
<path d="M19.398 51.6498C19.398 51.6381 19.398 51.6264 19.398 51.6264C19.398 50.5499 20.1 49.6606 21.0361 49.3212L19.7958 49.1925C18.3332 49.0404 17.046 50.1637 17.046 51.6381C17.046 51.6498 17.046 51.6615 17.046 51.6615C17.046 61.3501 27.1208 69.3655 40.156 70.5707C40.2145 70.4771 40.2847 70.3952 40.3432 70.3016C28.3845 68.4411 19.398 60.8001 19.398 51.6498Z" fill="#23AFAB"/>
<path d="M40.1676 32.7405C38.5178 32.8926 36.9381 33.15 35.4052 33.5011C28.6419 35.5839 23.1306 42.3121 23.1306 49.5318L19.8075 49.1807C18.3448 49.0286 17.0577 50.1519 17.0577 51.6263C17.0577 51.638 17.0577 51.6497 17.0577 51.6497C17.0577 61.3383 27.1324 69.3537 40.1676 70.5589C43.912 65.3986 46.1587 58.8108 46.1587 51.6497C46.1587 44.4768 43.912 37.9007 40.1676 32.7405Z" stroke="#204751" stroke-width="0.702075" stroke-miterlimit="10" stroke-linecap="round" stroke-linejoin="round"/>
<path d="M32.3629 50.8541C31.6258 50.7839 30.9471 50.702 30.3386 50.6201C30.3035 50.4212 30.2918 50.2222 30.2918 50.0233C30.2918 48.5373 31.146 47.2735 32.3161 46.8406C31.9651 47.3905 31.7545 48.0809 31.7545 48.8181C31.7545 49.5787 31.9768 50.2924 32.3629 50.8541Z" fill="white" stroke="white" stroke-width="0.46805" stroke-miterlimit="10" stroke-linecap="round" stroke-linejoin="round"/>
<path d="M24.7337 49.8946C23.7391 49.7659 22.8147 49.6372 21.9956 49.5085C21.9605 49.2394 21.9488 48.9702 21.9488 48.6894C22.0073 46.6651 23.2008 44.9801 24.8156 44.4185C24.3124 45.1556 23.9965 46.08 23.9731 47.098C23.9497 48.1395 24.2305 49.1107 24.7337 49.8946Z" fill="white" stroke="white" stroke-width="0.46805" stroke-miterlimit="10" stroke-linecap="round" stroke-linejoin="round"/>
<path d="M41.9931 48.3268C41.9931 47.2386 38.9507 45.9866 38.9507 45.9866" stroke="#204751" stroke-width="0.702075" stroke-miterlimit="10" stroke-linecap="round" stroke-linejoin="round"/>
<path d="M31.9534 42.7101C34.5384 42.7101 36.6339 40.5098 36.6339 37.7956C36.6339 35.0814 34.5384 32.8811 31.9534 32.8811C29.3684 32.8811 27.2729 35.0814 27.2729 37.7956C27.2729 40.5098 29.3684 42.7101 31.9534 42.7101Z" fill="white"/>
<path d="M31.9534 42.7101C34.5384 42.7101 36.6339 40.5098 36.6339 37.7956C36.6339 35.0814 34.5384 32.8811 31.9534 32.8811C29.3684 32.8811 27.2729 35.0814 27.2729 37.7956C27.2729 40.5098 29.3684 42.7101 31.9534 42.7101Z" stroke="#204751" stroke-width="0.702075" stroke-miterlimit="10" stroke-linecap="round" stroke-linejoin="round"/>
<path d="M31.5789 41.107C32.6129 41.107 33.4511 40.2426 33.4511 39.1763C33.4511 38.11 32.6129 37.2456 31.5789 37.2456C30.5449 37.2456 29.7067 38.11 29.7067 39.1763C29.7067 40.2426 30.5449 41.107 31.5789 41.107Z" fill="#1E1826"/>
<path d="M31.1226 39.3871C31.5814 39.3871 31.9534 39.0047 31.9534 38.5329C31.9534 38.0611 31.5814 37.6787 31.1226 37.6787C30.6638 37.6787 30.2918 38.0611 30.2918 38.5329C30.2918 39.0047 30.6638 39.3871 31.1226 39.3871Z" fill="white"/>
<path d="M32.0587 40.522C32.2267 40.522 32.3629 40.3806 32.3629 40.2061C32.3629 40.0316 32.2267 39.8901 32.0587 39.8901C31.8907 39.8901 31.7545 40.0316 31.7545 40.2061C31.7545 40.3806 31.8907 40.522 32.0587 40.522Z" fill="white"/>
<path d="M29.0749 44.442C29.11 44.4069 29.1451 44.3718 29.1802 44.3367C28.6888 44.5707 28.209 44.8866 27.7995 45.2611C26.2432 46.6769 25.7868 48.6544 26.4889 50.2458L28.5483 50.5266C27.2846 48.631 27.425 46.1621 29.0749 44.442Z" fill="white" stroke="white" stroke-width="0.46805" stroke-miterlimit="10" stroke-linecap="round" stroke-linejoin="round"/>
<path d="M35.2882 48.3852C35.2999 48.3735 35.3116 48.3501 35.335 48.3384C35.1244 48.4671 34.9255 48.6192 34.7617 48.8064C34.1649 49.4851 34.1649 50.3393 34.668 50.9829L35.6978 50.9946C34.8904 50.2457 34.6797 49.2043 35.2882 48.3852Z" fill="white" stroke="white" stroke-width="0.46805" stroke-miterlimit="10" stroke-linecap="round" stroke-linejoin="round"/>
<path d="M52.1732 53.3115C52.1732 53.3115 46.8842 57.9569 48.3469 62.5906C48.3469 62.5906 49.1308 64.8489 51.7051 65.2468C54.1975 65.6212 54.7123 64.4277 55.2974 63.8426C52.9337 62.8948 53.9869 59.8291 54.5134 59.2909C53.4252 59.2909 52.1732 58.3665 51.7285 57.3719C51.2956 56.3773 51.5413 55.4294 52.1732 53.3115Z" fill="#372E42"/>
<path opacity="0.83" d="M48.3469 62.6024C48.3469 62.6024 49.0958 64.7671 51.553 65.2235C50.3595 62.3801 49.8563 58.8112 49.6457 56.3188C48.5341 58.0506 47.6331 60.3207 48.3469 62.6024Z" fill="#2D2638"/>
<path d="M52.1732 53.3115C52.1732 53.3115 46.8842 57.9569 48.3469 62.5906C48.3469 62.5906 49.1308 64.8489 51.7051 65.2468C54.1975 65.6212 54.7123 64.4277 55.2974 63.8426C52.9337 62.8948 53.9869 59.8291 54.5134 59.2909C53.4252 59.2909 52.1732 58.3665 51.7285 57.3719C51.2956 56.3773 51.5413 55.4294 52.1732 53.3115Z" stroke="#272130" stroke-width="0.702075" stroke-miterlimit="10" stroke-linecap="round" stroke-linejoin="round"/>
<path d="M40.7878 47.1565C40.7878 47.1565 40.9282 51.5562 34.6213 51.0647C27.4952 50.503 20.9074 49.2978 20.9074 49.2978" stroke="#204751" stroke-width="0.702075" stroke-miterlimit="10" stroke-linecap="round" stroke-linejoin="round"/>
<path opacity="0.78" d="M31.2045 64.8374C32.7297 64.8374 33.966 63.6011 33.966 62.076C33.966 60.5508 32.7297 59.3145 31.2045 59.3145C29.6794 59.3145 28.4431 60.5508 28.4431 62.076C28.4431 63.6011 29.6794 64.8374 31.2045 64.8374Z" fill="#6D87AC"/>
<path opacity="0.78" d="M38.0849 40.9432C38.5631 40.9432 38.9508 40.5555 38.9508 40.0773C38.9508 39.5991 38.5631 39.2114 38.0849 39.2114C37.6067 39.2114 37.219 39.5991 37.219 40.0773C37.219 40.5555 37.6067 40.9432 38.0849 40.9432Z" fill="#6D87AC"/>
<path opacity="0.78" d="M40.2613 38.1116C40.9786 38.1116 41.5601 37.5301 41.5601 36.8128C41.5601 36.0954 40.9786 35.5139 40.2613 35.5139C39.544 35.5139 38.9625 36.0954 38.9625 36.8128C38.9625 37.5301 39.544 38.1116 40.2613 38.1116Z" fill="#6D87AC"/>
<path opacity="0.78" d="M39.2667 53.7678C39.6286 53.7678 39.922 53.4744 39.922 53.1125C39.922 52.7506 39.6286 52.4573 39.2667 52.4573C38.9048 52.4573 38.6115 52.7506 38.6115 53.1125C38.6115 53.4744 38.9048 53.7678 39.2667 53.7678Z" fill="#6D87AC"/>
<path opacity="0.39" d="M40.3549 42.4526C40.594 42.4526 40.7878 42.2587 40.7878 42.0196C40.7878 41.7805 40.594 41.5867 40.3549 41.5867C40.1158 41.5867 39.9219 41.7805 39.9219 42.0196C39.9219 42.2587 40.1158 42.4526 40.3549 42.4526Z" fill="#6D87AC"/>
<path opacity="0.78" d="M51.6934 43.2835C53.2186 43.2835 54.4549 42.0471 54.4549 40.522C54.4549 38.9969 53.2186 37.7605 51.6934 37.7605C50.1683 37.7605 48.9319 38.9969 48.9319 40.522C48.9319 42.0471 50.1683 43.2835 51.6934 43.2835Z" fill="#6D87AC"/>
<path opacity="0.39" d="M60.2353 48.4553C62.1352 48.4553 63.6754 46.9151 63.6754 45.0151C63.6754 43.1152 62.1352 41.575 60.2353 41.575C58.3353 41.575 56.7951 43.1152 56.7951 45.0151C56.7951 46.9151 58.3353 48.4553 60.2353 48.4553Z" fill="#6D87AC"/>
<path opacity="0.78" d="M66.4486 52.3872C67.2241 52.3872 67.8528 51.7585 67.8528 50.983C67.8528 50.2075 67.2241 49.5789 66.4486 49.5789C65.6732 49.5789 65.0445 50.2075 65.0445 50.983C65.0445 51.7585 65.6732 52.3872 66.4486 52.3872Z" fill="#6D87AC"/>
<path opacity="0.78" d="M37.2307 65.6329C37.7994 65.6329 38.2604 65.1719 38.2604 64.6032C38.2604 64.0345 37.7994 63.5735 37.2307 63.5735C36.662 63.5735 36.201 64.0345 36.201 64.6032C36.201 65.1719 36.662 65.6329 37.2307 65.6329Z" fill="#6D87AC"/>
<path d="M49.4819 60.0279C49.4819 60.0279 50.652 59.2907 51.1551 58.7759" stroke="#272130" stroke-width="0.46805" stroke-miterlimit="10" stroke-linecap="round" stroke-linejoin="round"/>
<path d="M49.4819 61.5025C49.4819 61.5025 51.8221 60.9994 52.4072 60.4143" stroke="#272130" stroke-width="0.46805" stroke-miterlimit="10" stroke-linecap="round" stroke-linejoin="round"/>
<path d="M49.985 62.6023C49.985 62.6023 51.5412 63.2225 52.7114 63.5735" stroke="#272130" stroke-width="0.46805" stroke-miterlimit="10" stroke-linecap="round" stroke-linejoin="round"/>
<path d="M35.6978 70.5591C35.6978 70.5591 36.3881 72.3494 37.2189 72.7355" stroke="#272130" stroke-width="0.46805" stroke-miterlimit="10" stroke-linecap="round" stroke-linejoin="round"/>
</g>
<defs>
<clipPath id="clip0_237_4560">
<rect width="100" height="100" fill="white"/>
</clipPath>
</defs>
</svg>
