<svg width="119" height="120" viewBox="0 0 119 120" fill="none" xmlns="http://www.w3.org/2000/svg">
<mask id="mask0_354_905" style="mask-type:alpha" maskUnits="userSpaceOnUse" x="0" y="0" width="119" height="120">
<path d="M2.19865 21.0447C3.22881 11.5401 10.7413 4.03569 20.2458 3.00537C48.0931 -0.013348 68.8243 0.110474 97.3437 3.11637C106.775 4.11041 114.318 11.437 115.494 20.8473C119.009 48.9527 118.92 69.7965 115.366 98.6347C114.232 107.834 107.043 115.119 97.8569 116.352C69.597 120.143 48.7352 120.306 19.8747 116.427C10.5447 115.173 3.32983 107.65 2.34168 98.2885C-0.609275 70.3304 -0.896525 49.6019 2.19865 21.0447Z" fill="white"/>
</mask>
<g mask="url(#mask0_354_905)">
<path d="M2.19865 21.0447C3.22881 11.5401 10.7413 4.03569 20.2458 3.00537C48.0931 -0.013348 68.8243 0.110474 97.3437 3.11637C106.775 4.11041 114.318 11.437 115.494 20.8473C119.009 48.9527 118.92 69.7965 115.366 98.6347C114.232 107.834 107.043 115.119 97.8569 116.352C69.597 120.143 48.7352 120.306 19.8747 116.427C10.5447 115.173 3.32983 107.65 2.34168 98.2885C-0.609275 70.3304 -0.896525 49.6019 2.19865 21.0447Z" fill="white"/>
<path d="M57.6895 128.801H21.4435C20.0996 128.801 19 127.701 19 126.357V30.2443C19 28.9004 20.0996 27.8008 21.4435 27.8008H57.6895C59.0335 27.8008 60.1331 28.9004 60.1331 30.2443V126.357C60.1331 127.701 59.0335 128.801 57.6895 128.801Z" fill="#AECBD9"/>
<path d="M21.9526 126.357V30.2443C21.9526 28.9004 23.1337 27.8008 24.5794 27.8008H21.6268C20.181 27.8008 19 28.9004 19 30.2443V126.357C19 127.701 20.181 128.801 21.6268 128.801H24.5794C23.1133 128.801 21.9526 127.701 21.9526 126.357Z" fill="#C4E7F4"/>
<path opacity="0.89" d="M57.6891 27.8008H53.1074C54.4514 27.8008 55.551 28.9004 55.551 30.2443V126.357C55.551 127.701 54.4514 128.801 53.1074 128.801H57.6891C59.033 128.801 60.1326 127.701 60.1326 126.357V30.2443C60.1326 28.9004 59.033 27.8008 57.6891 27.8008Z" fill="#8CA2AE"/>
<path d="M57.6895 128.801H21.4435C20.0996 128.801 19 127.701 19 126.357V30.2443C19 28.9004 20.0996 27.8008 21.4435 27.8008H57.6895C59.0335 27.8008 60.1331 28.9004 60.1331 30.2443V126.357C60.1331 127.701 59.0335 128.801 57.6895 128.801Z" stroke="#333333" stroke-width="2.03629" stroke-miterlimit="10" stroke-linecap="round" stroke-linejoin="round"/>
<path d="M60.1331 58.7524H19V30.2443C19 28.9004 20.0996 27.8008 21.4435 27.8008H57.6895C59.0335 27.8008 60.1331 28.9004 60.1331 30.2443V58.7524Z" stroke="#333333" stroke-width="2.03629" stroke-miterlimit="10" stroke-linecap="round" stroke-linejoin="round"/>
<path d="M24.5586 42.4014V51.8294" stroke="#333333" stroke-width="2.03629" stroke-miterlimit="10" stroke-linecap="round" stroke-linejoin="round"/>
<path d="M24.5586 74.6152V91.7404" stroke="#333333" stroke-width="2.03629" stroke-miterlimit="10" stroke-linecap="round" stroke-linejoin="round"/>
<path d="M60.1331 58.752H19V64.311H60.1331V58.752Z" fill="#64809B"/>
<path opacity="0.71" d="M60.1327 58.752H55.4492V64.311H60.1327V58.752Z" fill="#8CA2AE"/>
<path opacity="0.26" d="M21.9526 58.752H19V64.311H21.9526V58.752Z" fill="#64809B"/>
<path d="M60.1331 58.752H19V64.311H60.1331V58.752Z" stroke="#333333" stroke-width="2.03629" stroke-miterlimit="10" stroke-linecap="round" stroke-linejoin="round"/>
<path d="M31.625 61.542H47.3044" stroke="#333333" stroke-width="1.22177" stroke-miterlimit="10" stroke-linecap="round" stroke-linejoin="round"/>
<path d="M104.399 79.8652H60.0098V127.337H104.399V79.8652Z" stroke="#333333" stroke-width="2.05504" stroke-miterlimit="10" stroke-linecap="round" stroke-linejoin="round"/>
<path d="M104.399 88.2285H60.0098V126.164H104.399V88.2285Z" fill="#F29F4D"/>
<path d="M104.399 88.2285H60.0098V90.859H104.399V88.2285Z" fill="#DB8945"/>
<path d="M104.399 88.2285H60.0098V126.164H104.399V88.2285Z" stroke="#333333" stroke-width="2.05504" stroke-miterlimit="10" stroke-linecap="round" stroke-linejoin="round"/>
<path d="M66.709 115.417V103.292C66.709 100.908 68.6407 98.9766 71.0246 98.9766H93.3628C95.7466 98.9766 97.6784 100.908 97.6784 103.292V115.417C97.6784 117.801 95.7466 119.732 93.3628 119.732H71.0451C68.6613 119.732 66.709 117.801 66.709 115.417Z" fill="#CFE5E8"/>
<path d="M71.045 116.855C70.2435 116.855 69.6064 116.198 69.6064 115.417V103.292C69.6064 102.491 70.2641 101.854 71.045 101.854H93.3627C94.1641 101.854 94.8012 102.511 94.8012 103.292V115.417C94.8012 116.218 94.1436 116.855 93.3627 116.855H71.045Z" fill="#A7E3E8"/>
<path d="M66.709 115.417V103.292C66.709 100.908 68.6407 98.9766 71.0246 98.9766H93.3628C95.7466 98.9766 97.6784 100.908 97.6784 103.292V115.417C97.6784 117.801 95.7466 119.732 93.3628 119.732H71.0451C68.6613 119.732 66.709 117.801 66.709 115.417Z" stroke="#333333" stroke-width="1.64403" stroke-miterlimit="10" stroke-linecap="round" stroke-linejoin="round"/>
<path d="M90.3413 93.5312H74.0654" stroke="#333333" stroke-width="2.05504" stroke-miterlimit="10" stroke-linecap="round" stroke-linejoin="round"/>
<path d="M104.406 88.2351V79.8711L60.0175 79.8711V88.2351L104.406 88.2351Z" fill="#F4B47A"/>
<path opacity="0.63" d="M104.393 88.2212V86.5771L60.0038 86.5771V88.2212L104.393 88.2212Z" fill="#DB8945"/>
<path d="M104.389 81.6208V79.874L59.9999 79.874V81.6208L104.389 81.6208Z" fill="#F9C59B"/>
<path d="M104.406 88.2351V79.8711L60.0175 79.8711V88.2351L104.406 88.2351Z" stroke="#333333" stroke-width="2.05504" stroke-miterlimit="10" stroke-linecap="round" stroke-linejoin="round"/>
<path d="M64.3867 84.0361H73.9837" stroke="#333333" stroke-width="2.46604" stroke-miterlimit="10" stroke-linecap="round" stroke-linejoin="round"/>
<path d="M90.3419 85.4953C91.1477 85.4953 91.801 84.842 91.801 84.0362C91.801 83.2304 91.1477 82.5771 90.3419 82.5771C89.5361 82.5771 88.8828 83.2304 88.8828 84.0362C88.8828 84.842 89.5361 85.4953 90.3419 85.4953Z" fill="#EA5050"/>
<path d="M90.3419 85.4953C91.1477 85.4953 91.801 84.842 91.801 84.0362C91.801 83.2304 91.1477 82.5771 90.3419 82.5771C89.5361 82.5771 88.8828 83.2304 88.8828 84.0362C88.8828 84.842 89.5361 85.4953 90.3419 85.4953Z" stroke="#333333" stroke-width="0.822014" stroke-miterlimit="10" stroke-linecap="round" stroke-linejoin="round"/>
<path d="M94.7394 85.4953C95.5452 85.4953 96.1984 84.842 96.1984 84.0362C96.1984 83.2304 95.5452 82.5771 94.7394 82.5771C93.9335 82.5771 93.2803 83.2304 93.2803 84.0362C93.2803 84.842 93.9335 85.4953 94.7394 85.4953Z" fill="#7DC163"/>
<path d="M94.7394 85.4953C95.5452 85.4953 96.1984 84.842 96.1984 84.0362C96.1984 83.2304 95.5452 82.5771 94.7394 82.5771C93.9335 82.5771 93.2803 83.2304 93.2803 84.0362C93.2803 84.842 93.9335 85.4953 94.7394 85.4953Z" stroke="#333333" stroke-width="0.822014" stroke-miterlimit="10" stroke-linecap="round" stroke-linejoin="round"/>
<path d="M99.1573 85.4953C99.9632 85.4953 100.616 84.842 100.616 84.0362C100.616 83.2304 99.9632 82.5771 99.1573 82.5771C98.3515 82.5771 97.6982 83.2304 97.6982 84.0362C97.6982 84.842 98.3515 85.4953 99.1573 85.4953Z" stroke="#333333" stroke-width="0.822014" stroke-miterlimit="10" stroke-linecap="round" stroke-linejoin="round"/>
<path d="M99.1573 85.4953C99.9632 85.4953 100.616 84.842 100.616 84.0362C100.616 83.2304 99.9632 82.5771 99.1573 82.5771C98.3515 82.5771 97.6982 83.2304 97.6982 84.0362C97.6982 84.842 98.3515 85.4953 99.1573 85.4953Z" fill="#333333"/>
<path d="M89.2522 79.8649H74.6614C74.0655 79.8649 73.5723 79.3717 73.5723 78.7757C73.5723 78.1797 74.0655 77.6865 74.6614 77.6865H89.2522C89.8481 77.6865 90.3414 78.1797 90.3414 78.7757C90.3414 79.3717 89.8481 79.8649 89.2522 79.8649Z" fill="#333333"/>
<path d="M91.8009 72.0556L98.7058 66.4043L97.6988 65.0068L89.8691 68.9319L91.8009 72.0556Z" fill="#FFF3E9"/>
<path d="M91.8009 72.0556L98.7058 66.4043L97.6988 65.0068L89.8691 68.9319L91.8009 72.0556Z" stroke="#333333" stroke-width="2.05504" stroke-miterlimit="10" stroke-linecap="round" stroke-linejoin="round"/>
<path d="M88.841 77.6864H75.0928C72.9967 77.6864 71.291 75.9808 71.291 73.8846V68.7881C71.291 66.692 72.9967 64.9863 75.0928 64.9863H88.841C90.9372 64.9863 92.6428 66.692 92.6428 68.7881V73.9052C92.6428 76.0013 90.9372 77.6864 88.841 77.6864Z" fill="#DBDDDD"/>
<path opacity="0.55" d="M74.0662 73.9051V68.8087C74.0662 66.7125 75.7719 65.0068 77.8681 65.0068H75.1143C73.0182 65.0068 71.3125 66.7125 71.3125 68.8087V73.9051C71.3125 76.0013 73.0182 77.707 75.1143 77.707H77.8681C75.7719 77.6864 74.0662 76.0013 74.0662 73.9051Z" fill="white"/>
<path d="M88.8418 65.0068H85.0605C87.1567 65.0068 88.8624 66.7125 88.8624 68.8087V73.9051C88.8624 76.0013 87.1567 77.707 85.0605 77.707H88.8418C90.9379 77.707 92.6436 76.0013 92.6436 73.9051V68.8087C92.6436 66.692 90.9379 65.0068 88.8418 65.0068Z" fill="#C4CECD"/>
<path d="M88.841 77.6864H75.0928C72.9967 77.6864 71.291 75.9808 71.291 73.8846V68.7881C71.291 66.692 72.9967 64.9863 75.0928 64.9863H88.841C90.9372 64.9863 92.6428 66.692 92.6428 68.7881V73.9052C92.6428 76.0013 90.9372 77.6864 88.841 77.6864Z" stroke="#333333" stroke-width="2.05504" stroke-miterlimit="10" stroke-linecap="round" stroke-linejoin="round"/>
<path d="M71.312 69.3633H68.7021V72.2609H71.312V69.3633Z" fill="#333333"/>
<path d="M71.312 69.3633H68.7021V72.2609H71.312V69.3633Z" stroke="#333333" stroke-width="2.05504" stroke-miterlimit="10" stroke-linecap="round" stroke-linejoin="round"/>
<path d="M82.0599 66.4246C87.0878 66.4246 91.1637 65.7069 91.1637 64.8217C91.1637 63.9364 87.0878 63.2188 82.0599 63.2188C77.032 63.2188 72.9561 63.9364 72.9561 64.8217C72.9561 65.7069 77.032 66.4246 82.0599 66.4246Z" stroke="#333333" stroke-width="2.05504" stroke-miterlimit="10" stroke-linecap="round" stroke-linejoin="round"/>
<path d="M82.9641 60.959H80.9707V63.9799H82.9641V60.959Z" stroke="#333333" stroke-width="2.05504" stroke-miterlimit="10" stroke-linecap="round" stroke-linejoin="round"/>
<path d="M100.617 58.8008L99.9385 60.0338L101.274 61.6162L99.9385 63.2191" stroke="#333333" stroke-width="1.23302" stroke-miterlimit="10" stroke-linecap="round" stroke-linejoin="round"/>
<path d="M77.3537 116.855L88.7181 101.854H84.3614L72.9971 116.855H77.3537Z" fill="#D7FFF7"/>
<path d="M82.0602 116.855L93.4451 101.854C93.4245 101.854 93.404 101.854 93.3629 101.854H91.2667L79.8818 116.855H82.0602Z" fill="#D7FFF7"/>
</g>
</svg>
