<svg width="119" height="120" viewBox="0 0 119 120" fill="none" xmlns="http://www.w3.org/2000/svg">
<mask id="mask0_354_781" style="mask-type:alpha" maskUnits="userSpaceOnUse" x="0" y="0" width="119" height="120">
<path d="M2.19865 21.0447C3.22881 11.5401 10.7413 4.03569 20.2458 3.00537C48.0931 -0.013348 68.8243 0.110474 97.3437 3.11637C106.775 4.11041 114.318 11.437 115.494 20.8473C119.009 48.9527 118.92 69.7965 115.366 98.6347C114.232 107.834 107.043 115.119 97.8569 116.352C69.597 120.143 48.7352 120.306 19.8747 116.427C10.5447 115.173 3.32983 107.65 2.34168 98.2885C-0.609275 70.3304 -0.896525 49.6019 2.19865 21.0447Z" fill="white"/>
</mask>
<g mask="url(#mask0_354_781)">
<path d="M2.19865 21.0447C3.22881 11.5401 10.7413 4.03569 20.2458 3.00537C48.0931 -0.013348 68.8243 0.110474 97.3437 3.11637C106.775 4.11041 114.318 11.437 115.494 20.8473C119.009 48.9527 118.92 69.7965 115.366 98.6347C114.232 107.834 107.043 115.119 97.8569 116.352C69.597 120.143 48.7352 120.306 19.8747 116.427C10.5447 115.173 3.32983 107.65 2.34168 98.2885C-0.609275 70.3304 -0.896525 49.6019 2.19865 21.0447Z" fill="white"/>
<path d="M33.5979 34.1318H11V57.0963H33.5979V34.1318Z" fill="white"/>
<path d="M33.5979 34.1318H11V57.0963H33.5979V34.1318Z" stroke="#1B3242" stroke-width="1.83276" stroke-miterlimit="10" stroke-linecap="round" stroke-linejoin="round"/>
<path d="M30.4375 53.5497L30.4375 37.6963H14.1443L14.1443 53.5497H30.4375Z" fill="#F34C6A"/>
<path d="M30.4375 53.5497L30.4375 37.6963H14.1443L14.1443 53.5497H30.4375Z" stroke="#1B3242" stroke-width="1.09966" stroke-miterlimit="10" stroke-linecap="round" stroke-linejoin="round"/>
<path d="M59.0005 26.8008H39.0967V41.0597H59.0005V26.8008Z" fill="white"/>
<path d="M59.0005 26.8008H39.0967V41.0597H59.0005V26.8008Z" stroke="#1B3242" stroke-width="1.83276" stroke-miterlimit="10" stroke-linecap="round" stroke-linejoin="round"/>
<path d="M56.0947 38.136V29.7236L42.0375 29.7236V38.136H56.0947Z" fill="#1AC7CE"/>
<path d="M53.6855 47.1816H39.0967V66.334H53.6855V47.1816Z" fill="white"/>
<path d="M50.7725 63.4113V50.1055H42.0302V63.4113H50.7725Z" fill="#FFD55C"/>
<path d="M56.0947 38.136V29.7236L42.0375 29.7236V38.136H56.0947Z" stroke="#1B3242" stroke-width="1.09966" stroke-miterlimit="10" stroke-linecap="round" stroke-linejoin="round"/>
<path d="M50.7725 63.4113V50.1055H42.0302V63.4113H50.7725Z" stroke="#1B3242" stroke-width="1.09966" stroke-miterlimit="10" stroke-linecap="round" stroke-linejoin="round"/>
<path d="M53.6855 47.1816H39.0967V66.334H53.6855V47.1816Z" stroke="#1B3242" stroke-width="1.83276" stroke-miterlimit="10" stroke-linecap="round" stroke-linejoin="round"/>
<path d="M100.938 123.897L100.938 35.8008L68.1348 35.8008L68.1348 123.897H100.938Z" fill="#E8BA8B"/>
<path opacity="0.79" d="M100.195 36.0879H68.626V37.1024H100.195V36.0879Z" fill="#995D45"/>
<path d="M97.8951 38.8447H71.1787V118.994H97.8951V38.8447Z" fill="#C3F3F7"/>
<path opacity="0.31" d="M97.7272 42.6825V39.5205H74.1389H71.0107V42.6825V68.3844V71.5295V95.2361V98.3981V119.67H74.1389V98.3981H97.7272V95.2361H74.1389V71.5295H97.7272V68.3844H74.1389V42.6825H97.7272Z" fill="#474747"/>
<path d="M100.938 123.897L100.938 35.8008L68.1348 35.8008L68.1348 123.897H100.938Z" stroke="#1B3242" stroke-width="1.69091" stroke-miterlimit="10" stroke-linecap="round" stroke-linejoin="round"/>
<path d="M97.8951 92.2773H71.1787V118.994H97.8951V92.2773Z" stroke="#303030" stroke-width="1.69091" stroke-miterlimit="10" stroke-linecap="round" stroke-linejoin="round"/>
<path d="M97.8951 65.5605H71.1787V92.277H97.8951V65.5605Z" stroke="#303030" stroke-width="1.69091" stroke-miterlimit="10" stroke-linecap="round" stroke-linejoin="round"/>
<path d="M97.8951 38.8447H71.1787V65.5611H97.8951V38.8447Z" stroke="#303030" stroke-width="1.69091" stroke-miterlimit="10" stroke-linecap="round" stroke-linejoin="round"/>
<path d="M97.8951 38.8447H71.1787V118.994H97.8951V38.8447Z" stroke="#1B3242" stroke-width="1.69091" stroke-miterlimit="10" stroke-linecap="round" stroke-linejoin="round"/>
<path d="M97.8947 45.8281H93.1602V64.6818H97.8947V45.8281Z" fill="#FF433E"/>
<path d="M97.8947 45.8281H93.1602V64.6818H97.8947V45.8281Z" stroke="#1B3242" stroke-width="1.69091" stroke-miterlimit="10" stroke-linecap="round" stroke-linejoin="round"/>
<path d="M74.1943 87.6255L74.1943 92.1064L93.048 92.1064L93.048 87.6255L74.1943 87.6255Z" fill="#FF433E"/>
<path d="M74.1943 87.6255L74.1943 92.1064L93.048 92.1064L93.048 87.6255L74.1943 87.6255Z" stroke="#1B3242" stroke-width="1.69091" stroke-miterlimit="10" stroke-linecap="round" stroke-linejoin="round"/>
<path d="M76.668 83.1353L76.668 87.6162L95.5216 87.6162L95.5216 83.1353L76.668 83.1353Z" fill="#6CBC96"/>
<path d="M76.668 83.1353L76.668 87.6162L95.5216 87.6162L95.5216 83.1353L76.668 83.1353Z" stroke="#1B3242" stroke-width="1.69091" stroke-miterlimit="10" stroke-linecap="round" stroke-linejoin="round"/>
<path d="M74.3057 79.4281L74.3057 83.165L93.1593 83.165L93.1593 79.4281L74.3057 79.4281Z" fill="#FF433E"/>
<path d="M74.3057 79.4281L74.3057 83.165L93.1593 83.165L93.1593 79.4281L74.3057 79.4281Z" stroke="#1B3242" stroke-width="1.69091" stroke-miterlimit="10" stroke-linecap="round" stroke-linejoin="round"/>
<path d="M93.1602 50.5117H97.8947" stroke="#1B3242" stroke-width="1.69091" stroke-miterlimit="10" stroke-linecap="round" stroke-linejoin="round"/>
<path d="M93.1601 47.2139H89.1357V64.681H93.1601V47.2139Z" fill="#F4BA7A"/>
<path d="M93.1601 47.2139H89.1357V64.681H93.1601V47.2139Z" stroke="#1B3242" stroke-width="1.69091" stroke-miterlimit="10" stroke-linecap="round" stroke-linejoin="round"/>
<path d="M89.1357 51.543H93.1601" stroke="#1B3242" stroke-width="1.69091" stroke-miterlimit="10" stroke-linecap="round" stroke-linejoin="round"/>
<path d="M93.1993 99.8974L89.124 98.6523L83.615 116.684L87.6903 117.929L93.1993 99.8974Z" fill="#5492A8"/>
<path d="M93.1993 99.8974L89.124 98.6523L83.615 116.684L87.6903 117.929L93.1993 99.8974Z" stroke="#1B3242" stroke-width="1.69091" stroke-miterlimit="10" stroke-linecap="round" stroke-linejoin="round"/>
<path d="M87.7656 103.115L91.8238 104.35" stroke="#1B3242" stroke-width="1.69091" stroke-miterlimit="10" stroke-linecap="round" stroke-linejoin="round"/>
<path d="M88.4295 100.923L84.9688 99.8652L79.8649 116.571L83.3256 117.628L88.4295 100.923Z" fill="#934D84"/>
<path d="M88.4295 100.923L84.9688 99.8652L79.8649 116.571L83.3256 117.628L88.4295 100.923Z" stroke="#1B3242" stroke-width="1.69091" stroke-miterlimit="10" stroke-linecap="round" stroke-linejoin="round"/>
<path d="M83.709 103.995L87.1584 105.06" stroke="#1B3242" stroke-width="1.69091" stroke-miterlimit="10" stroke-linecap="round" stroke-linejoin="round"/>
<path d="M96.8426 100.611L93.3818 99.5537L88.1643 116.631L91.6251 117.689L96.8426 100.611Z" fill="#FF433E"/>
<path d="M96.8426 100.611L93.3818 99.5537L88.1643 116.631L91.6251 117.689L96.8426 100.611Z" stroke="#1B3242" stroke-width="1.69091" stroke-miterlimit="10" stroke-linecap="round" stroke-linejoin="round"/>
<path d="M92.0781 103.792L95.5445 104.84" stroke="#1B3242" stroke-width="1.69091" stroke-miterlimit="10" stroke-linecap="round" stroke-linejoin="round"/>
<path d="M88.9276 50.2278L85.6475 48.334L77.4212 62.5819L80.7013 64.4757L88.9276 50.2278Z" fill="#18C6CD"/>
<path d="M88.9276 50.2278L85.6475 48.334L77.4212 62.5819L80.7013 64.4757L88.9276 50.2278Z" stroke="#1B3242" stroke-width="1.69091" stroke-miterlimit="10" stroke-linecap="round" stroke-linejoin="round"/>
<path d="M83.624 51.8643L86.9044 53.7581" stroke="#1B3242" stroke-width="1.69091" stroke-miterlimit="10" stroke-linecap="round" stroke-linejoin="round"/>
<path d="M81.6455 83.1631V87.6271" stroke="#1B3242" stroke-width="1.69091" stroke-miterlimit="10" stroke-linecap="round" stroke-linejoin="round"/>
<path d="M78.5352 79.4268V83.1299" stroke="#1B3242" stroke-width="1.69091" stroke-miterlimit="10" stroke-linecap="round" stroke-linejoin="round"/>
<path d="M79.0244 87.6279V92.1088" stroke="#1B3242" stroke-width="1.69091" stroke-miterlimit="10" stroke-linecap="round" stroke-linejoin="round"/>
<path d="M97.8951 65.5098H71.1787V68.435H97.8951V65.5098Z" fill="#E8BA8B"/>
<path d="M97.8951 65.5098H71.1787V68.0123H97.8951V65.5098Z" stroke="#1B3242" stroke-width="1.69091" stroke-miterlimit="10" stroke-linecap="round" stroke-linejoin="round"/>
<path d="M97.8951 92.1084H71.1787V95.0337H97.8951V92.1084Z" fill="#995D45"/>
<path d="M97.8951 92.1084H71.1787V94.6448H97.8951V92.1084Z" stroke="#1B3242" stroke-width="1.69091" stroke-miterlimit="10" stroke-linecap="round" stroke-linejoin="round"/>
<path d="M97.8962 93.377H71.0107V118.994H97.8962V93.377Z" fill="#E8BA8B"/>
<path opacity="0.35" d="M97.8962 116.947H71.0107V118.993H97.8962V116.947Z" fill="#995D45"/>
<path opacity="0.82" d="M97.8962 94.0186H71.0107V95.236H97.8962V94.0186Z" fill="#995D45"/>
<path d="M97.8951 93.377H71.1787V118.994H97.8951V93.377Z" stroke="#1B3242" stroke-width="1.69091" stroke-miterlimit="10" stroke-linecap="round" stroke-linejoin="round"/>
<path d="M91.875 100.597V111.774" stroke="#1B3242" stroke-width="1.86" stroke-miterlimit="10" stroke-linecap="round" stroke-linejoin="round"/>
</g>
</svg>
