<svg width="100" height="100" viewBox="0 0 100 100" fill="none" xmlns="http://www.w3.org/2000/svg">
<g clip-path="url(#clip0_237_4961)">
<path d="M100 0H0V100H100V0Z" fill="#008B87"/>
<path d="M62.76 47.8401C63.17 49.2501 63.28 50.9901 66.91 55.5301C74.33 64.8201 73.83 72.2101 72.91 74.7001C72.33 73.7301 72.17 73.0701 70.92 71.4301C71.84 74.5001 71.1 78.9301 68.55 81.5301L68.14 78.9601C67.24 83.5701 64.69 85.2301 63.32 86.6301C63.32 85.3501 62.74 83.5801 62.75 83.5801C62.03 86.1301 58.85 89.5301 56.59 90.4601C56.98 89.5401 56.82 87.0601 55.43 86.2901C55.43 87.1001 54.36 91.4701 50.42 93.0501C46.47 91.4701 45.41 87.0901 45.41 86.2901C44.02 87.0501 43.86 89.5401 44.25 90.4601C41.99 89.5301 38.8 86.1301 38.09 83.5801C38.1 83.5801 37.52 85.3401 37.52 86.6301C36.15 85.2301 33.6 83.5801 32.7 78.9601L32.29 81.5301C29.75 78.9301 29 74.5101 29.92 71.4301C28.67 73.0601 28.51 73.7301 27.93 74.7001C27.01 72.2201 26.51 64.8201 33.93 55.5301C37.56 50.9901 37.66 49.2501 38.08 47.8401H62.76Z" fill="#C88D6C"/>
<path d="M35.72 54.4901C38.4 51.0401 39.16 49.1701 39.54 47.8401H38.08C37.67 49.2501 37.56 50.9901 33.93 55.5301C26.51 64.8201 27.01 72.2101 27.93 74.7001C28.4 73.9201 28.6 73.3401 29.3 72.2901C28.88 68.7801 29.67 62.2901 35.72 54.4901Z" fill="#B77D5F"/>
<path d="M69.9299 78.5701C69.7999 79.2501 69.6299 79.8701 69.4399 80.4401C69.6699 80.1101 69.8699 79.7701 70.0599 79.4101C69.9899 78.9501 69.9299 78.5701 69.9299 78.5701Z" fill="#DBA797"/>
<path d="M73.41 71.8501C73.22 71.5601 72.99 71.2201 72.71 70.8401C73 71.8501 73.13 72.9901 73.08 74.1701C73.24 73.5701 73.37 72.7901 73.41 71.8501Z" fill="#DBA797"/>
<path d="M28.57 67.01C28.19 67.51 27.91 67.91 27.69 68.27C27.16 71.29 27.5 73.54 27.93 74.71C28.23 74.2 28.42 73.78 28.72 73.26C28.06 71.14 28.02 68.84 28.57 67.01Z" fill="#B77D5F"/>
<path d="M71.73 63.5C72.35 66.69 72 69.06 71.55 70.27C70.97 69.3 70.81 68.64 69.56 67C70.48 70.07 69.74 74.5 67.19 77.1L66.78 74.53C65.88 79.14 63.33 80.8 61.96 82.2C61.96 80.92 61.38 79.15 61.39 79.15C60.67 81.7 57.49 85.1 55.23 86.03C55.62 85.11 55.46 82.63 54.07 81.86C54.07 82.67 53 87.04 49.06 88.62C45.11 87.04 44.05 82.66 44.05 81.86C42.66 82.62 42.5 85.11 42.89 86.03C40.63 85.1 37.44 81.7 36.73 79.15C36.74 79.15 36.16 80.91 36.16 82.2C34.79 80.8 32.24 79.15 31.34 74.53L30.93 77.1C30.41 76.57 29.96 75.96 29.59 75.3C29.81 77.57 30.69 79.91 32.28 81.53L32.69 78.96C33.59 83.57 36.14 85.23 37.51 86.63C37.51 85.35 38.09 83.58 38.08 83.58C38.8 86.13 41.98 89.53 44.24 90.46C43.85 89.54 44.01 87.06 45.4 86.29C45.4 87.1 46.47 91.47 50.41 93.05C54.36 91.47 55.42 87.09 55.42 86.29C56.81 87.05 56.97 89.54 56.58 90.46C58.84 89.53 62.03 86.13 62.74 83.58C62.73 83.58 63.31 85.34 63.31 86.63C64.68 85.23 67.23 83.58 68.13 78.96L68.54 81.53C71.08 78.93 71.83 74.51 70.91 71.43C72.16 73.06 72.32 73.73 72.9 74.7C73.54 72.99 73.98 68.92 71.73 63.5Z" fill="#B77D5F"/>
<path d="M58.07 43.96C58.39 44.86 57.67 43.14 60.21 46.07C65.82 52.55 67.03 62.25 66.64 64.54C66.13 63.62 65.95 62.99 64.92 61.51C65.85 64.32 65.74 68.69 64.1 71.16L63.57 68.56C63.28 73.22 61.47 74.76 60.5 76.14C60.41 74.78 59.85 72.94 59.86 72.94C59.47 75.55 57.14 78.95 55.37 79.84C55.65 78.87 55.44 76.23 54.33 75.41C54.35 76.26 53.61 80.82 50.41 82.54C47.21 80.83 46.47 76.26 46.49 75.41C45.38 76.23 45.17 78.87 45.45 79.84C43.67 78.95 41.35 75.55 40.96 72.94C40.97 72.94 40.41 74.78 40.32 76.14C39.36 74.76 37.54 73.21 37.25 68.56C37.25 68.56 36.73 71.15 36.72 71.16C35.07 68.68 34.96 64.31 35.9 61.51C34.87 62.99 34.69 63.61 34.18 64.54C33.78 62.25 34.95 52.55 40.56 46.07C43.1 43.14 42.44 44.86 42.75 43.96C47.86 44.5 52.98 44.5 58.07 43.96Z" fill="#D5A284"/>
<path d="M63.27 49.0301C63.24 48.9001 62.79 47.9601 62.76 47.8401L39.33 48.2401C39.29 48.3801 39.26 48.5101 39.22 48.6601C39.56 49.2301 39.9 49.7801 40.2 50.3101C41.39 52.4101 42.16 54.7101 42.43 57.0401C41.61 58.5001 41.14 60.1901 41.14 61.9701C41.14 64.8801 42.38 67.5101 44.37 69.3801C45.34 73.0801 48.24 75.7701 51.67 75.7701C55.12 75.7701 58.03 73.0601 58.99 69.3301C60.95 67.4601 62.17 64.8501 62.17 61.9601C62.17 60.1901 61.71 58.5201 60.9 57.0601C61.16 54.7401 61.87 52.4501 63.06 50.3701C63.38 49.8201 62.91 49.6501 63.27 49.0301Z" fill="#C28467"/>
<path d="M62.76 47.8401C63.17 49.2501 63.28 50.9901 66.91 55.5301C74.33 64.8201 73.83 72.2101 72.91 74.7001C72.33 73.7301 72.17 73.0701 70.92 71.4301C71.84 74.5001 71.1 78.9301 68.55 81.5301L68.14 78.9601C67.24 83.5701 64.69 85.2301 63.32 86.6301C63.32 85.3501 62.74 83.5801 62.75 83.5801C62.03 86.1301 58.85 89.5301 56.59 90.4601C56.98 89.5401 56.82 87.0601 55.43 86.2901C55.43 87.1001 54.36 91.4701 50.42 93.0501C46.47 91.4701 45.41 87.0901 45.41 86.2901C44.02 87.0501 43.86 89.5401 44.25 90.4601C41.99 89.5301 38.8 86.1301 38.09 83.5801C38.1 83.5801 37.52 85.3401 37.52 86.6301C36.15 85.2301 33.6 83.5801 32.7 78.9601L32.29 81.5301C29.75 78.9301 29 74.5101 29.92 71.4301C28.67 73.0601 28.51 73.7301 27.93 74.7001C27.01 72.2201 26.51 64.8201 33.93 55.5301C37.56 50.9901 37.66 49.2501 38.08 47.8401H62.76Z" stroke="#34323A" stroke-width="1.2" stroke-miterlimit="10" stroke-linecap="round" stroke-linejoin="round"/>
<path d="M56.46 35.05C56.46 35.05 52.82 28.4 53.05 25.8C53.28 23.2 55.43 23.18 55.32 24.44C54.93 28.9 57.43 24.8 58.16 25.12C59.53 25.74 57.09 27.81 57.01 28.74C56.85 30.6 57.65 30.47 59.16 29.21C60.4 28.16 62.86 26.16 62.15 20.29C60.46 16.02 64.48 13.94 65.09 15.58C65.7 17.22 65.86 22.84 64.3 25.71C69.91 24.79 73.74 20.63 74.21 15.15C73.82 12.08 77.43 11.49 77.91 14.2C78.1 15.3 75.78 21.35 71.99 24.54C68.2 27.72 75.14 25.15 76 26.17C78.36 28.97 70.94 30.98 67.18 27.22C63.25 29.32 59.11 31.64 57.15 36.9C55.84 36.77 56.46 35.05 56.46 35.05Z" fill="#593939"/>
<path d="M59.15 29.1899C58.84 29.4499 58.57 29.6599 58.32 29.8099C58.57 30.4299 59.29 30.1099 60.39 29.1899C61.63 28.1399 64.09 26.1399 63.38 20.2699C62.29 17.5299 63.56 15.6899 64.77 15.1599C63.67 14.3899 60.63 16.4599 62.14 20.2699C62.85 26.1399 60.39 28.1499 59.15 29.1899Z" fill="#764F4F"/>
<path d="M65.68 25.3903C65.63 25.5003 65.58 25.6003 65.53 25.7003C71.14 24.7803 74.97 20.6203 75.44 15.1403C75.26 13.7503 75.9 12.8703 76.7 12.5703C75.51 12.1103 73.93 13.0503 74.2 15.1403C73.76 20.1503 70.52 24.0503 65.68 25.3903Z" fill="#764F4F"/>
<path d="M75.49 25.9399C74.75 25.8199 73.43 26.0399 72.39 26.1399C72.98 26.2799 74.34 26.0299 75.49 25.9399Z" fill="#764F4F"/>
<path d="M57.7 35.0499C57.7 35.0499 54.06 28.3999 54.29 25.7999C54.38 24.7999 54.75 24.1799 55.17 23.8699C54.69 23.2799 53.24 23.6899 53.05 25.7999C52.82 28.3999 56.46 35.0499 56.46 35.0499C56.46 35.0499 55.84 36.7799 57.14 36.8899C57.27 36.5399 57.41 36.2099 57.55 35.8899C57.55 35.4599 57.7 35.0499 57.7 35.0499Z" fill="#764F4F"/>
<path d="M58.55 25.5302C58.5 25.3602 58.38 25.2202 58.16 25.1102C57.85 24.9702 57.21 25.6402 56.61 26.1102C56.9 27.0702 57.81 26.1402 58.55 25.5302Z" fill="#764F4F"/>
<path d="M68.41 27.2002C68.15 27.3402 67.89 27.4802 67.63 27.6202C69.24 28.9402 71.34 29.3802 73.09 29.2402C71.46 29.1202 69.71 28.5102 68.41 27.2002Z" fill="#764F4F"/>
<path d="M56.46 35.05C56.46 35.05 52.82 28.4 53.05 25.8C53.28 23.2 55.43 23.18 55.32 24.44C54.93 28.9 57.43 24.8 58.16 25.12C59.53 25.74 57.09 27.81 57.01 28.74C56.85 30.6 57.65 30.47 59.16 29.21C60.4 28.16 62.86 26.16 62.15 20.29C60.46 16.02 64.48 13.94 65.09 15.58C65.7 17.22 65.86 22.84 64.3 25.71C69.91 24.79 73.74 20.63 74.21 15.15C73.82 12.08 77.43 11.49 77.91 14.2C78.1 15.3 75.78 21.35 71.99 24.54C68.2 27.72 75.14 25.15 76 26.17C78.36 28.97 70.94 30.98 67.18 27.22C63.25 29.32 59.11 31.64 57.15 36.9C55.84 36.77 56.46 35.05 56.46 35.05Z" stroke="#34323A" stroke-width="1.2" stroke-miterlimit="10" stroke-linecap="round" stroke-linejoin="round"/>
<path d="M60.79 43.78C60.79 43.78 60.89 43.8 61.06 43.83C61.02 44.06 60.79 43.78 60.79 43.78Z" fill="#B26447"/>
<path d="M80.74 34.85C82.89 37 77.53 39.88 74.43 41.27C69.77 43.36 65.6 40.82 61.07 43.82C61.11 43.6 60.99 42.9 60.35 41.03C66.19 34.99 76.34 30.45 80.74 34.85Z" fill="#B26447"/>
<path d="M60.79 43.7798C60.79 43.7798 60.89 43.7998 61.06 43.8298C61.02 44.0598 60.79 43.7798 60.79 43.7798Z" fill="#B26447"/>
<path d="M80.74 34.85C82.89 37 77.53 39.88 74.43 41.27C69.77 43.36 65.6 40.82 61.07 43.82C61.11 43.6 60.99 42.9 60.35 41.03C66.19 34.99 76.34 30.45 80.74 34.85Z" fill="#B26447"/>
<path d="M80.74 34.85C82.89 37 77.53 39.88 74.43 41.27C69.77 43.36 65.6 40.82 61.07 43.82C61.11 43.6 60.99 42.9 60.35 41.03C66.19 34.99 76.34 30.45 80.74 34.85Z" fill="#B26447"/>
<path d="M80.7399 34.8499C77.1799 31.2899 69.8899 33.5699 64.1299 37.7499C72.5699 33.1999 76.6999 34.0099 78.4999 35.2999C79.7599 36.2099 79.6299 38.1699 78.0999 39.3599C80.3599 37.9499 82.1399 36.2499 80.7399 34.8499Z" fill="#C97C5B"/>
<path d="M68.98 40.92C64.43 40.3 65.24 37.74 66.75 36.23C64.64 36.86 61.54 39.8 60.34 41.04C60.98 42.91 61.11 43.61 61.06 43.83C65.02 41.21 69.43 42.82 73.42 41.87C72.37 41.65 70.46 41.12 68.98 40.92Z" fill="#A5553B"/>
<path d="M60.79 43.78C60.79 43.78 60.89 43.8 61.06 43.83C61.02 44.06 60.79 43.78 60.79 43.78Z" stroke="#34323A" stroke-width="1.2" stroke-miterlimit="10" stroke-linecap="round" stroke-linejoin="round"/>
<path d="M80.74 34.85C82.89 37 77.53 39.88 74.43 41.27C69.77 43.36 65.6 40.82 61.07 43.82C61.11 43.6 60.99 42.9 60.35 41.03C66.19 34.99 76.34 30.45 80.74 34.85Z" stroke="#34323A" stroke-width="1.2" stroke-miterlimit="10" stroke-linecap="round" stroke-linejoin="round"/>
<path d="M40.04 43.78C40.04 43.78 39.94 43.8 39.77 43.83C39.82 44.06 40.04 43.78 40.04 43.78Z" fill="#B26447"/>
<path d="M20.1 34.85C17.95 37 23.31 39.88 26.41 41.27C31.07 43.36 35.24 40.82 39.77 43.82C39.73 43.6 39.85 42.9 40.49 41.03C34.64 34.99 24.5 30.45 20.1 34.85Z" fill="#B26447"/>
<path d="M40.04 43.78C40.04 43.78 39.94 43.8 39.77 43.83C39.82 44.06 40.04 43.78 40.04 43.78Z" fill="#B26447"/>
<path d="M20.1 34.85C17.95 37 23.31 39.88 26.41 41.27C31.07 43.36 35.24 40.82 39.77 43.82C39.73 43.6 39.85 42.9 40.49 41.03C34.64 34.99 24.5 30.45 20.1 34.85Z" fill="#B26447"/>
<path d="M40.04 43.78C40.04 43.78 39.94 43.8 39.77 43.83C39.82 44.06 40.04 43.78 40.04 43.78Z" fill="#B26447"/>
<path d="M20.1 34.85C17.95 37 23.31 39.88 26.41 41.27C31.07 43.36 35.24 40.82 39.77 43.82C39.73 43.6 39.85 42.9 40.49 41.03C34.64 34.99 24.5 30.45 20.1 34.85Z" fill="#B26447"/>
<path d="M40.04 43.78C40.04 43.78 39.94 43.8 39.77 43.83C39.82 44.06 40.04 43.78 40.04 43.78Z" fill="#B26447"/>
<path d="M20.1 34.85C17.95 37 23.31 39.88 26.41 41.27C31.07 43.36 35.24 40.82 39.77 43.82C39.73 43.6 39.85 42.9 40.49 41.03C34.64 34.99 24.5 30.45 20.1 34.85Z" fill="#B26447"/>
<path d="M21.5 35.8999C23.18 34.2199 29.07 34.4099 32.18 35.0399C27.2 33.0999 22.43 32.5199 20.1 34.8499C17.95 36.9999 23.31 39.8799 26.41 41.2699C26.57 41.3399 26.73 41.4099 26.89 41.4699C23.91 39.8699 20.48 36.9199 21.5 35.8999Z" fill="#C97C5B"/>
<path d="M29.75 34.3501C31.8 35.5001 34.51 37.0401 34.95 39.8001C35.11 40.8201 35.02 41.5801 34.54 42.2401C36.26 42.3201 37.99 42.6501 39.78 43.8301C39.74 43.6101 39.86 42.9101 40.5 41.0401C38.85 39.3401 32.95 35.0501 29.75 34.3501Z" fill="#A5553B"/>
<path d="M40.04 43.78C40.04 43.78 39.94 43.8 39.77 43.83C39.82 44.06 40.04 43.78 40.04 43.78Z" stroke="#34323A" stroke-width="1.2" stroke-miterlimit="10" stroke-linecap="round" stroke-linejoin="round"/>
<path d="M20.1 34.85C17.95 37 23.31 39.88 26.41 41.27C31.07 43.36 35.24 40.82 39.77 43.82C39.73 43.6 39.85 42.9 40.49 41.03C34.64 34.99 24.5 30.45 20.1 34.85Z" stroke="#34323A" stroke-width="1.2" stroke-miterlimit="10" stroke-linecap="round" stroke-linejoin="round"/>
<path d="M43.54 35.0501C43.54 35.0501 46.36 28.9901 46.37 26.3801C46.38 21.7901 44.58 23.1801 44.68 24.4301C45.07 28.8901 42.57 24.7901 41.84 25.1101C40.47 25.7301 43.13 28.2401 43.13 29.1701C43.13 29.6601 42.76 32.1501 41.42 31.7301C39.87 31.2501 37.56 28.2601 37.88 26.0701C38.62 20.5601 34.72 17.8301 34.18 18.2201C32.85 19.2101 38.39 26.8701 34.64 25.5401C32.65 24.8401 29.52 20.1901 28.63 18.7001C26.31 14.8101 25.01 13.4401 22.63 12.8401C16.43 14.3301 33.95 25.4701 30.24 27.1601C28.92 27.7601 25.59 24.5801 23.72 26.4601C22.54 27.6401 28.73 31.6301 33.14 28.8801C33.68 28.5401 41.22 33.1901 41.74 38.0001C41.88 39.3101 43.54 35.0501 43.54 35.0501Z" fill="#593939"/>
<path d="M44.34 27.0203C43.64 26.9203 42.5 25.4103 42.05 25.6103C41.67 25.7803 41.6 26.1003 41.7 26.4903C42.49 26.7603 44.16 29.1503 44.34 27.0203Z" fill="#764F4F"/>
<path d="M37.51 27.4502C37.2 29.6302 39.5 32.6202 41.05 33.1102C41.75 33.3302 42.18 32.7602 42.44 32.1002C42.22 32.2702 41.95 32.3402 41.63 32.2402C40.08 31.7602 37.77 28.7702 38.09 26.5802C38.83 21.0702 34.93 18.3402 34.39 18.7302C34.18 18.8802 34.14 19.2002 34.21 19.6202C35.33 20.0102 38.15 22.7002 37.51 27.4502Z" fill="#764F4F"/>
<path d="M22.26 14.2201C24.64 14.8201 25.94 16.2001 28.26 20.0801C29.15 21.5701 32.29 26.2201 34.27 26.9201C35.35 27.3001 35.66 26.9401 35.58 26.2001C35.39 26.2001 35.15 26.1501 34.84 26.0501C32.85 25.3501 29.72 20.7001 28.83 19.2101C26.51 15.3201 25.21 13.9501 22.83 13.3501C21.95 13.5601 21.55 13.9701 21.5 14.5201C21.7 14.3901 21.95 14.2901 22.26 14.2201Z" fill="#764F4F"/>
<path d="M44.9 24.6102C45.39 24.4302 46.01 25.0602 46 27.7502C45.99 30.3602 43.17 36.4202 43.17 36.4202C43.17 36.4202 42.64 37.7702 42.15 38.7202C42.64 38.3702 43.74 35.5502 43.74 35.5502C43.74 35.5502 46.56 29.4902 46.57 26.8802C46.58 22.6802 45.07 23.4802 44.9 24.6102Z" fill="#764F4F"/>
<path d="M29.87 28.5402C30.27 28.3602 30.42 28.0702 30.39 27.6902C29.04 28.1802 25.77 25.1202 23.92 26.9702C23.78 27.1102 23.74 27.2902 23.8 27.5002C25.72 26.4302 28.65 29.1002 29.87 28.5402Z" fill="#764F4F"/>
<path d="M43.54 35.0501C43.54 35.0501 46.36 28.9901 46.37 26.3801C46.38 21.7901 44.58 23.1801 44.68 24.4301C45.07 28.8901 42.57 24.7901 41.84 25.1101C40.47 25.7301 43.13 28.2401 43.13 29.1701C43.13 29.6601 42.76 32.1501 41.42 31.7301C39.87 31.2501 37.56 28.2601 37.88 26.0701C38.62 20.5601 34.72 17.8301 34.18 18.2201C32.85 19.2101 38.39 26.8701 34.64 25.5401C32.65 24.8401 29.52 20.1901 28.63 18.7001C26.31 14.8101 25.01 13.4401 22.63 12.8401C16.43 14.3301 33.95 25.4701 30.24 27.1601C28.92 27.7601 25.59 24.5801 23.72 26.4601C22.54 27.6401 28.73 31.6301 33.14 28.8801C33.68 28.5401 41.22 33.1901 41.74 38.0001C41.88 39.3101 43.54 35.0501 43.54 35.0501Z" stroke="#34323A" stroke-width="1.2" stroke-miterlimit="10" stroke-linecap="round" stroke-linejoin="round"/>
<path d="M50.33 33.2C43.63 33.25 37.5 38.58 37.9 45.7C38.02 47.91 39.57 49.95 40.58 51.69C41.66 53.55 42.33 55.59 42.53 57.65C41.83 58.79 41.43 60.09 41.43 61.48C41.43 64.2 42.96 66.38 45.3 67.66C45.3 67.72 45.29 67.77 45.29 67.83C45.29 70 47.59 71.77 50.42 71.77C53.25 71.77 55.55 70.01 55.55 67.83C55.55 67.77 55.55 67.72 55.54 67.66C57.88 66.38 59.41 64.2 59.41 61.48C59.41 60.11 59.02 58.81 58.33 57.69C58.52 55.64 59.14 53.6 60.22 51.76C61.28 49.96 62.84 47.84 62.94 45.53C63.25 38.36 57.07 33.14 50.33 33.2Z" stroke="#34323A" stroke-width="1.2" stroke-miterlimit="10" stroke-linecap="round" stroke-linejoin="round"/>
<path d="M62.94 45.52C63.25 38.36 57.07 33.14 50.33 33.2C43.63 33.25 37.5 38.58 37.9 45.7C38.02 47.91 39.57 49.95 40.58 51.69C42.02 54.17 42.74 56.96 42.56 59.71C42.54 60 42.54 61.23 42.55 61.53C42.72 65.84 46.18 68.33 50.32 68.39C54.59 68.45 58.18 65.89 58.3 61.45C58.31 61.22 58.3 60.06 58.29 59.83C58.15 57.07 58.77 54.24 60.23 51.76C61.28 49.95 62.84 47.82 62.94 45.52Z" fill="#B26447"/>
<path d="M62.94 45.52C63.25 38.36 57.07 33.14 50.33 33.2C43.63 33.25 37.5 38.58 37.9 45.7C38.02 47.91 39.57 49.95 40.58 51.69C42.02 54.17 42.74 56.96 42.56 59.71C42.54 60 42.54 61.23 42.55 61.53C42.72 65.84 46.18 68.33 50.32 68.39C54.59 68.45 58.18 65.89 58.3 61.45C58.31 61.22 58.3 60.06 58.29 59.83C58.15 57.07 58.77 54.24 60.23 51.76C61.28 49.95 62.84 47.82 62.94 45.52Z" stroke="#34323A" stroke-width="1.2" stroke-miterlimit="10" stroke-linecap="round" stroke-linejoin="round"/>
<path d="M50.33 33.2C43.63 33.25 37.5 38.58 37.9 45.7C38.02 47.91 39.57 49.95 40.58 51.69C41.66 53.55 42.33 55.59 42.53 57.65C41.83 58.79 41.43 60.09 41.43 61.48C41.43 64.2 42.96 66.38 45.3 67.66C45.3 67.72 45.29 67.77 45.29 67.83C45.29 70 47.59 71.77 50.42 71.77C53.25 71.77 55.55 70.01 55.55 67.83C55.55 67.77 55.55 67.72 55.54 67.66C57.88 66.38 59.41 64.2 59.41 61.48C59.41 60.11 59.02 58.81 58.33 57.69C58.52 55.64 59.14 53.6 60.22 51.76C61.28 49.96 62.84 47.84 62.94 45.53C63.25 38.36 57.07 33.14 50.33 33.2Z" stroke="#34323A" stroke-width="1.2" stroke-miterlimit="10" stroke-linecap="round" stroke-linejoin="round"/>
<path d="M62.94 45.52C63.25 38.36 57.07 33.14 50.33 33.2C43.63 33.25 37.5 38.58 37.9 45.7C38.02 47.91 39.57 49.95 40.58 51.69C42.02 54.17 42.74 56.96 42.56 59.71C42.54 60 42.54 61.23 42.55 61.53C42.72 65.84 46.18 68.33 50.32 68.39C54.59 68.45 58.18 65.89 58.3 61.45C58.31 61.22 58.3 60.06 58.29 59.83C58.15 57.07 58.77 54.24 60.23 51.76C61.28 49.95 62.84 47.82 62.94 45.52Z" fill="#B26447"/>
<path d="M58.29 61.43C58.3 61.2 58.29 60.04 58.28 59.81C58.14 57.05 58.76 54.22 60.22 51.74C61.28 49.94 62.84 47.82 62.94 45.51C63.25 38.35 57.07 33.13 50.33 33.19C50.06 33.19 49.79 33.2 49.53 33.22C50.83 36.18 52.92 38.45 53.4 43.81C53.82 48.45 49.69 62.4 49.69 64.22C49.69 66.04 49.37 68.82 52.07 68.07C52.35 67.99 52.78 67.95 53.32 67.94C56.15 67.05 58.2 64.77 58.29 61.43Z" fill="#AD5E42"/>
<path d="M50.3299 33.2C50.0599 33.2 49.7799 33.21 49.5099 33.23C55.8399 33.68 60.3299 39.9 60.3299 45.41C60.3299 47.71 59.4199 49.94 58.3699 51.74C56.9099 54.22 56.2899 57.05 56.4299 59.81C56.4399 60.04 56.44 61.2 56.44 61.43C56.32 65.5 53.3099 67.99 49.5099 68.33C49.7699 68.35 50.0299 68.37 50.2999 68.37C54.5699 68.43 58.1599 65.87 58.2799 61.43C58.2899 61.2 58.2799 60.04 58.2699 59.81C58.1299 57.05 58.7499 54.22 60.2099 51.74C61.2699 49.94 62.8299 47.82 62.9299 45.51C63.2499 38.36 57.0699 33.14 50.3299 33.2Z" fill="#A5553B"/>
<path d="M62.94 45.52C63.25 38.36 57.07 33.14 50.33 33.2C43.63 33.25 37.5 38.58 37.9 45.7C38.02 47.91 39.57 49.95 40.58 51.69C42.02 54.17 42.74 56.96 42.56 59.71C42.54 60 42.54 61.23 42.55 61.53C42.72 65.84 46.18 68.33 50.32 68.39C54.59 68.45 58.18 65.89 58.3 61.45C58.31 61.22 58.3 60.06 58.29 59.83C58.15 57.07 58.77 54.24 60.23 51.76C61.28 49.95 62.84 47.82 62.94 45.52Z" stroke="#34323A" stroke-width="1.2" stroke-miterlimit="10" stroke-linecap="round" stroke-linejoin="round"/>
<path d="M50.33 33.2002C43.63 33.2502 37.5 38.5802 37.9 45.7002C38.02 47.9102 39.57 49.9502 40.58 51.6902C41.66 53.5502 42.33 55.5902 42.53 57.6502C41.83 58.7902 41.43 60.0902 41.43 61.4802C41.43 64.2002 42.96 66.3802 45.3 67.6602C45.3 67.7202 45.29 67.7702 45.29 67.8302C45.29 70.0002 47.59 71.7702 50.42 71.7702C53.25 71.7702 55.55 70.0102 55.55 67.8302C55.55 67.7702 55.55 67.7202 55.54 67.6602C57.88 66.3802 59.41 64.2002 59.41 61.4802C59.41 60.1102 59.02 58.8102 58.33 57.6902C58.52 55.6402 59.14 53.6002 60.22 51.7602C61.28 49.9602 62.84 47.8402 62.94 45.5302C63.25 38.3602 57.07 33.1402 50.33 33.2002Z" stroke="#34323A" stroke-width="1.2" stroke-miterlimit="10" stroke-linecap="round" stroke-linejoin="round"/>
<path d="M56.25 34.5601C54.45 33.6701 52.42 33.1801 50.33 33.2001C43.63 33.2501 37.5 38.5801 37.9 45.7001C38.02 47.9101 39.57 49.9501 40.58 51.6901C41.7 53.6201 42.38 55.7401 42.55 57.8801L43 58.3201C43 58.3201 42.28 56.9901 42.72 56.4001C44.17 54.4501 38.49 48.2601 40.35 41.4801C40.54 40.7801 43.61 33.9801 51.04 33.5701C52.97 33.4601 52.32 33.7701 52.32 33.7701C52.25 33.6001 56.32 34.7201 56.25 34.5601Z" fill="#C97C5B"/>
<path d="M62.94 45.5202C63.25 38.3602 57.07 33.1402 50.33 33.2002C43.63 33.2502 37.5 38.5802 37.9 45.7002C38.02 47.9102 39.57 49.9502 40.58 51.6902C42.02 54.1702 42.74 56.9602 42.56 59.7102C42.54 60.0002 42.54 61.2302 42.55 61.5302C42.72 65.8402 46.18 68.3302 50.32 68.3902C54.59 68.4502 58.18 65.8902 58.3 61.4502C58.31 61.2202 58.3 60.0602 58.29 59.8302C58.15 57.0702 58.77 54.2402 60.23 51.7602C61.28 49.9502 62.84 47.8202 62.94 45.5202Z" stroke="#34323A" stroke-width="1.2" stroke-miterlimit="10" stroke-linecap="round" stroke-linejoin="round"/>
<path d="M50.42 71.7599C53.2532 71.7599 55.55 69.9959 55.55 67.8199C55.55 65.6439 53.2532 63.8799 50.42 63.8799C47.5868 63.8799 45.29 65.6439 45.29 67.8199C45.29 69.9959 47.5868 71.7599 50.42 71.7599Z" fill="white"/>
<path d="M50.42 71.7599C53.2532 71.7599 55.55 69.9959 55.55 67.8199C55.55 65.6439 53.2532 63.8799 50.42 63.8799C47.5868 63.8799 45.29 65.6439 45.29 67.8199C45.29 69.9959 47.5868 71.7599 50.42 71.7599Z" fill="#B26447"/>
<path d="M52.99 64.4099C53.49 65.0199 53.78 65.7399 53.78 66.5099C53.78 68.6799 51.48 70.4499 48.65 70.4499C47.71 70.4499 46.83 70.2599 46.08 69.9199C46.99 71.0199 48.59 71.7599 50.42 71.7599C53.25 71.7599 55.55 69.9999 55.55 67.8199C55.55 66.3599 54.52 65.0899 52.99 64.4099Z" fill="#A7583D"/>
<path d="M50.42 71.7599C53.2532 71.7599 55.55 69.9959 55.55 67.8199C55.55 65.6439 53.2532 63.8799 50.42 63.8799C47.5868 63.8799 45.29 65.6439 45.29 67.8199C45.29 69.9959 47.5868 71.7599 50.42 71.7599Z" stroke="#34323A" stroke-width="1.2" stroke-miterlimit="10" stroke-linecap="round" stroke-linejoin="round"/>
<path d="M55.55 50.2702C56.4778 50.2702 57.23 49.1822 57.23 47.8402C57.23 46.4981 56.4778 45.4102 55.55 45.4102C54.6222 45.4102 53.87 46.4981 53.87 47.8402C53.87 49.1822 54.6222 50.2702 55.55 50.2702Z" fill="#34323A"/>
<path d="M56.21 47.8401C56.464 47.8401 56.67 47.558 56.67 47.2101C56.67 46.8621 56.464 46.5801 56.21 46.5801C55.9559 46.5801 55.75 46.8621 55.75 47.2101C55.75 47.558 55.9559 47.8401 56.21 47.8401Z" fill="white"/>
<path d="M54.96 41.5401C54.1 41.8301 53.4 42.2901 53.14 42.7801C53.06 42.9301 52.95 43.3001 53.14 43.3701C53.7 43.5901 53.73 42.9401 55.33 42.7501C56.5 42.6101 57.38 43.1701 57.82 42.8401C58.02 42.6901 58.13 42.3801 58.03 42.1101C57.68 41.2001 56.03 41.1801 54.96 41.5401Z" fill="#34323A"/>
<path d="M45.29 50.2702C46.2178 50.2702 46.97 49.1822 46.97 47.8402C46.97 46.4981 46.2178 45.4102 45.29 45.4102C44.3621 45.4102 43.61 46.4981 43.61 47.8402C43.61 49.1822 44.3621 50.2702 45.29 50.2702Z" fill="#34323A"/>
<path d="M44.63 47.8401C44.884 47.8401 45.09 47.558 45.09 47.2101C45.09 46.8621 44.884 46.5801 44.63 46.5801C44.3759 46.5801 44.17 46.8621 44.17 47.2101C44.17 47.558 44.3759 47.8401 44.63 47.8401Z" fill="white"/>
<path d="M45.88 41.5401C46.74 41.8301 47.44 42.2901 47.7 42.7801C47.78 42.9301 47.89 43.3001 47.7 43.3701C47.14 43.5901 47.11 42.9401 45.51 42.7501C44.34 42.6101 43.46 43.1701 43.02 42.8401C42.82 42.6901 42.71 42.3801 42.81 42.1101C43.16 41.2001 44.8 41.1801 45.88 41.5401Z" fill="#34323A"/>
<path d="M50.42 53.49C45.45 53.49 41.43 57.06 41.43 61.47C41.43 64.97 43.97 67.59 47.5 68.52C48.88 68.88 50.26 68.3 50.42 66.89C50.58 68.31 51.96 68.89 53.34 68.52C56.87 67.59 59.41 64.97 59.41 61.47C59.41 57.06 55.38 53.49 50.42 53.49Z" fill="#C28064"/>
<path d="M50.42 53.49C45.45 53.49 41.43 57.06 41.43 61.47C41.43 64.97 43.97 67.59 47.5 68.52C48.88 68.88 50.26 68.3 50.42 66.89C50.58 68.31 51.96 68.89 53.34 68.52C56.87 67.59 59.41 64.97 59.41 61.47C59.41 57.06 55.38 53.49 50.42 53.49Z" fill="#C28064"/>
<path d="M50.42 53.49C45.45 53.49 41.43 57.06 41.43 61.47C41.43 64.97 43.97 67.59 47.5 68.52C48.88 68.88 50.26 68.3 50.42 66.89C50.58 68.31 51.96 68.89 53.34 68.52C56.87 67.59 59.41 64.97 59.41 61.47C59.41 57.06 55.38 53.49 50.42 53.49Z" fill="#C28064"/>
<g opacity="0.4">
<path d="M48.84 68.52C45.31 67.59 42.77 64.97 42.77 61.47C42.77 57.26 46.44 53.82 51.09 53.51C50.87 53.5 50.64 53.49 50.42 53.49C45.45 53.49 41.43 57.06 41.43 61.47C41.43 64.97 43.97 67.59 47.5 68.52C48 68.65 48.51 68.66 48.95 68.55C48.91 68.53 48.87 68.53 48.84 68.52Z" fill="#B26447"/>
</g>
<g opacity="0.2">
<path d="M50.42 53.49C49.98 53.49 49.54 53.52 49.11 53.57C53.46 54.13 57.81 57.21 57.44 62C57.13 65.94 54.56 67.26 51.36 68.32C51.91 68.63 52.63 68.7 53.35 68.51C56.88 67.58 59.42 64.96 59.42 61.46C59.41 57.06 55.38 53.49 50.42 53.49Z" fill="#B67056"/>
</g>
<path d="M50.42 53.49C45.45 53.49 41.43 57.06 41.43 61.47C41.43 64.97 43.97 67.59 47.5 68.52C48.88 68.88 50.26 68.3 50.42 66.89C50.58 68.31 51.96 68.89 53.34 68.52C56.87 67.59 59.41 64.97 59.41 61.47C59.41 57.06 55.38 53.49 50.42 53.49Z" stroke="#34323A" stroke-width="1.2" stroke-miterlimit="10" stroke-linecap="round" stroke-linejoin="round"/>
<path d="M50.42 66.88V62.95" stroke="#34323A" stroke-width="1.2" stroke-miterlimit="10" stroke-linecap="round" stroke-linejoin="round"/>
<path d="M50.42 64.2699C53.6177 64.2699 56.21 62.5059 56.21 60.3299C56.21 58.1539 53.6177 56.3899 50.42 56.3899C47.2223 56.3899 44.63 58.1539 44.63 60.3299C44.63 62.5059 47.2223 64.2699 50.42 64.2699Z" fill="#34323A"/>
<path d="M50.42 64.2699C53.6177 64.2699 56.21 62.5059 56.21 60.3299C56.21 58.1539 53.6177 56.3899 50.42 56.3899C47.2223 56.3899 44.63 58.1539 44.63 60.3299C44.63 62.5059 47.2223 64.2699 50.42 64.2699Z" stroke="#34323A" stroke-width="1.2" stroke-miterlimit="10" stroke-linecap="round" stroke-linejoin="round"/>
<path d="M50.42 62.4299C52.9715 62.4299 55.04 61.0778 55.04 59.4099C55.04 57.742 52.9715 56.3899 50.42 56.3899C47.8684 56.3899 45.8 57.742 45.8 59.4099C45.8 61.0778 47.8684 62.4299 50.42 62.4299Z" fill="#403E47"/>
<path d="M49.69 59.41C51.137 59.41 52.31 58.9175 52.31 58.31C52.31 57.7024 51.137 57.21 49.69 57.21C48.243 57.21 47.07 57.7024 47.07 58.31C47.07 58.9175 48.243 59.41 49.69 59.41Z" fill="#FDFDFF"/>
<path d="M65.52 40.7999C65.52 40.7999 71.74 37.5099 75.48 36.8899" stroke="#34323A" stroke-width="1.2" stroke-miterlimit="10" stroke-linecap="round" stroke-linejoin="round"/>
<path d="M26.3 37.3999C26.3 37.3999 32.5 38.3999 36.5 40.7999" stroke="#34323A" stroke-width="1.2" stroke-miterlimit="10" stroke-linecap="round" stroke-linejoin="round"/>
</g>
<defs>
<clipPath id="clip0_237_4961">
<rect width="100" height="100" fill="white"/>
</clipPath>
</defs>
</svg>
