<svg width="119" height="119" viewBox="0 0 119 119" fill="none" xmlns="http://www.w3.org/2000/svg">
<mask id="mask0_354_848" style="mask-type:alpha" maskUnits="userSpaceOnUse" x="0" y="0" width="119" height="119">
<path d="M2.19865 20.2439C3.22881 10.7393 10.7413 3.23491 20.2458 2.20459C48.0931 -0.814129 68.8243 -0.690307 97.3437 2.31558C106.775 3.30963 114.318 10.6362 115.494 20.0465C119.009 48.1519 118.92 68.9957 115.366 97.834C114.232 107.033 107.043 114.319 97.8569 115.551C69.597 119.342 48.7352 119.505 19.8747 115.626C10.5447 114.373 3.32983 106.85 2.34168 97.4877C-0.609275 69.5296 -0.896525 48.8011 2.19865 20.2439Z" fill="white"/>
</mask>
<g mask="url(#mask0_354_848)">
<path d="M2.19865 20.2439C3.22881 10.7393 10.7413 3.23491 20.2458 2.20459C48.0931 -0.814129 68.8243 -0.690307 97.3437 2.31558C106.775 3.30963 114.318 10.6362 115.494 20.0465C119.009 48.1519 118.92 68.9957 115.366 97.834C114.232 107.033 107.043 114.319 97.8569 115.551C69.597 119.342 48.7352 119.505 19.8747 115.626C10.5447 114.373 3.32983 106.85 2.34168 97.4877C-0.609275 69.5296 -0.896525 48.8011 2.19865 20.2439Z" fill="white"/>
<path d="M101.185 103.943C73.3926 109.572 44.5451 109.572 16.7529 103.943C16.7529 96.11 16.7529 88.3 16.7529 80.4666C16.7529 78.1448 18.8168 75.8229 21.3967 75.3304C46.2103 70.8977 71.7275 70.8977 96.541 75.3304C99.1209 75.8229 101.185 78.1448 101.185 80.4666C101.185 88.3 101.185 96.11 101.185 103.943Z" fill="#FFC859"/>
<path d="M21.8884 77.6288C46.3736 73.7825 71.5625 73.7825 96.0242 77.6288C97.666 77.9102 99.1201 78.8718 99.9175 80.0445C99.9175 79.8099 99.9175 79.5754 99.9175 79.3409C99.9175 77.3239 97.9005 75.3069 95.4145 74.8848C71.3279 71.0384 46.5612 71.0384 22.4747 74.8848C19.9887 75.3069 17.9717 77.3239 17.9717 79.3409C17.9717 79.5754 17.9717 79.8099 17.9717 80.0445C18.7925 78.8484 20.2466 77.9102 21.8884 77.6288Z" fill="#F9D895"/>
<path d="M51.7212 97.9866C43.4656 98.8075 35.1397 98.8075 26.8842 97.9866C25.1017 97.799 23.6711 96.3684 23.5303 94.5625C23.4131 93.038 23.4131 91.5135 23.5303 89.9891C23.6711 88.1832 25.0783 86.7525 26.8842 86.5649C35.1397 85.744 43.4656 85.744 51.7212 86.5649C53.5037 86.7525 54.9343 88.1832 55.075 89.9891C55.1923 91.5135 55.1923 93.038 55.075 94.5625C54.9108 96.3684 53.5037 97.8225 51.7212 97.9866Z" fill="#CE5555"/>
<path opacity="0.47" d="M54.5121 91.2084C54.3714 93.0143 53.0111 94.445 51.2755 94.6326C43.3014 95.4535 35.2804 95.4535 27.3063 94.6326C25.5707 94.445 24.2104 93.0143 24.0697 91.2084C24.0462 91.0208 24.0462 90.8097 24.0462 90.6221C23.9759 91.9355 23.9759 93.2723 24.0697 94.5857C24.2104 96.3916 25.5707 97.8222 27.3063 98.0099C35.2804 98.8307 43.3014 98.8307 51.2755 98.0099C53.0111 97.8222 54.3714 96.3916 54.5121 94.5857C54.6059 93.2488 54.6293 91.9355 54.5355 90.6221C54.5355 90.8097 54.5355 90.9973 54.5121 91.2084Z" fill="#CE5555"/>
<path opacity="0.5" d="M23.5303 91.8887C23.6711 90.0828 25.0783 88.6522 26.8842 88.4646C35.1397 87.6437 43.4656 87.6437 51.7212 88.4646C53.5037 88.6522 54.9343 90.0828 55.075 91.8887C55.1219 92.3344 55.1219 92.78 55.1454 93.2256C55.1923 92.1467 55.1688 91.0913 55.075 90.0125C54.9343 88.2066 53.5271 86.7759 51.7212 86.5883C43.4656 85.7674 35.1397 85.7674 26.8842 86.5883C25.1017 86.7759 23.6711 88.2066 23.5303 90.0125C23.4365 91.0913 23.4131 92.1702 23.46 93.2256C23.4834 92.78 23.4834 92.3344 23.5303 91.8887Z" fill="#CE5555"/>
<path d="M51.7212 97.9866C43.4656 98.8075 35.1397 98.8075 26.8842 97.9866C25.1017 97.799 23.6711 96.3684 23.5303 94.5625C23.4131 93.038 23.4131 91.5135 23.5303 89.9891C23.6711 88.1832 25.0783 86.7525 26.8842 86.5649C35.1397 85.744 43.4656 85.744 51.7212 86.5649C53.5037 86.7525 54.9343 88.1832 55.075 89.9891C55.1923 91.5135 55.1923 93.038 55.075 94.5625C54.9108 96.3684 53.5037 97.8225 51.7212 97.9866Z" stroke="#333333" stroke-width="2.34533" stroke-miterlimit="10" stroke-linecap="round" stroke-linejoin="round"/>
<path d="M91.0522 97.9866C82.7967 98.8075 74.4708 98.8075 66.2152 97.9866C64.4328 97.799 63.0021 96.3684 62.8614 94.5625C62.7441 93.038 62.7441 91.5135 62.8614 89.9891C63.0021 88.1832 64.4093 86.7525 66.2152 86.5649C74.4708 85.744 82.7967 85.744 91.0522 86.5649C92.8347 86.7525 94.2653 88.1832 94.4061 89.9891C94.5233 91.5135 94.5233 93.038 94.4061 94.5625C94.2653 96.3684 92.8581 97.8225 91.0522 97.9866Z" fill="#CE5555"/>
<path opacity="0.47" d="M93.5625 91.2084C93.4217 93.0143 92.0849 94.445 90.3963 94.6326C82.5863 95.4535 74.706 95.4535 66.8726 94.6326C65.184 94.445 63.8471 93.0143 63.7064 91.2084C63.683 91.0208 63.683 90.8097 63.683 90.6221C63.6126 91.9355 63.6126 93.2723 63.7064 94.5857C63.8471 96.3916 65.184 97.8222 66.8726 98.0099C74.6826 98.8307 82.5629 98.8307 90.3963 98.0099C92.0849 97.8222 93.4217 96.3916 93.5625 94.5857C93.6563 93.2488 93.6797 91.9355 93.5859 90.6221C93.5859 90.8097 93.5859 90.9973 93.5625 91.2084Z" fill="#CE5555"/>
<path opacity="0.5" d="M62.8848 91.8887C63.0256 90.0828 64.4327 88.6522 66.2387 88.4646C74.4942 87.6437 82.8201 87.6437 91.0757 88.4646C92.8581 88.6522 94.2888 90.0828 94.4295 91.8887C94.4764 92.3344 94.4764 92.78 94.4999 93.2256C94.5468 92.1467 94.5233 91.0913 94.4295 90.0125C94.2888 88.2066 92.8816 86.7759 91.0757 86.5883C82.8201 85.7674 74.4942 85.7674 66.2387 86.5883C64.4562 86.7759 63.0256 88.2066 62.8848 90.0125C62.791 91.0913 62.7676 92.1702 62.8145 93.2256C62.8145 92.78 62.8379 92.3344 62.8848 91.8887Z" fill="#CE5555"/>
<path d="M91.0522 97.9866C82.7967 98.8075 74.4708 98.8075 66.2152 97.9866C64.4328 97.799 63.0021 96.3684 62.8614 94.5625C62.7441 93.038 62.7441 91.5135 62.8614 89.9891C63.0021 88.1832 64.4093 86.7525 66.2152 86.5649C74.4708 85.744 82.7967 85.744 91.0522 86.5649C92.8347 86.7525 94.2653 88.1832 94.4061 89.9891C94.5233 91.5135 94.5233 93.038 94.4061 94.5625C94.2653 96.3684 92.8581 97.8225 91.0522 97.9866Z" stroke="#333333" stroke-width="2.34533" stroke-miterlimit="10" stroke-linecap="round" stroke-linejoin="round"/>
<path d="M101.185 103.943C73.3926 109.572 44.5451 109.572 16.7529 103.943C16.7529 96.11 16.7529 88.3 16.7529 80.4666C16.7529 78.1448 18.8168 75.8229 21.3967 75.3304C46.2103 70.8977 71.7275 70.8977 96.541 75.3304C99.1209 75.8229 101.185 78.1448 101.185 80.4666C101.185 88.3 101.185 96.11 101.185 103.943Z" stroke="#333333" stroke-width="2.34533" stroke-miterlimit="10" stroke-linecap="round" stroke-linejoin="round"/>
<path d="M103.295 105.702H14.6416C14.6416 101.551 17.9954 98.1974 22.1467 98.1974H95.79C99.9412 98.1739 103.295 101.551 103.295 105.702Z" fill="#B2C68B"/>
<path opacity="0.38" d="M103.295 101.95H14.6416V105.703H103.295V101.95Z" fill="#AABC80"/>
<path d="M103.295 105.702H14.6416C14.6416 101.551 17.9954 98.1974 22.1467 98.1974H95.79C99.9412 98.1739 103.295 101.551 103.295 105.702Z" stroke="#333333" stroke-width="2.34533" stroke-miterlimit="10" stroke-linecap="round" stroke-linejoin="round"/>
<path d="M104.937 125.309H13V107.578C13 106.546 13.8443 105.702 14.8763 105.702H103.061C104.093 105.702 104.937 106.546 104.937 107.578V125.309Z" fill="#AA7D5E"/>
<path d="M104.937 125.309H13V107.578C13 106.546 13.8443 105.702 14.8763 105.702H103.061C104.093 105.702 104.937 106.546 104.937 107.578V125.309Z" fill="#FFC758"/>
<path d="M104.937 108.165H13V107.578C13 106.546 13.8443 105.702 14.8763 105.702H103.061C104.093 105.702 104.937 106.546 104.937 107.578V108.165Z" fill="#F9D895"/>
<path d="M104.937 125.309H13V107.578C13 106.546 13.8443 105.702 14.8763 105.702H103.061C104.093 105.702 104.937 106.546 104.937 107.578V125.309Z" stroke="#333333" stroke-width="2.34533" stroke-miterlimit="10" stroke-linecap="round" stroke-linejoin="round"/>
<path d="M34.6914 24.8543L38.4369 23.2725" stroke="#333333" stroke-width="1.81818" stroke-miterlimit="10" stroke-linecap="round" stroke-linejoin="round"/>
<path d="M29 21.8184H33.2546" stroke="#333333" stroke-width="1.81818" stroke-miterlimit="10" stroke-linecap="round" stroke-linejoin="round"/>
<path d="M24.7637 24.3096H29" stroke="#333333" stroke-width="1.81818" stroke-miterlimit="10" stroke-linecap="round" stroke-linejoin="round"/>
<path d="M43 36.1094H23V39.0185H43V36.1094Z" fill="#6A6A68"/>
<path d="M43 36.1094H23V39.0185H43V36.1094Z" stroke="#333333" stroke-width="1.81818" stroke-miterlimit="10" stroke-linecap="round" stroke-linejoin="round"/>
<path d="M29 20.8906H24.7637V36.1088H29V20.8906Z" stroke="#333333" stroke-width="1.81818" stroke-miterlimit="10" stroke-linecap="round" stroke-linejoin="round"/>
<path opacity="0.38" d="M29 20.8906H24.7637V36.1088H29V20.8906Z" fill="#629EC0"/>
<path d="M33.2364 17H29V36.1091H33.2364V17Z" fill="#FFC859"/>
<path d="M33.2364 17H29V36.1091H33.2364V17Z" stroke="#333333" stroke-width="1.81818" stroke-miterlimit="10" stroke-linecap="round" stroke-linejoin="round"/>
<path d="M37.019 19.7352L33.2539 21.2402L38.9029 35.3718L42.668 33.8668L37.019 19.7352Z" fill="#FF7373"/>
<path d="M37.019 19.7352L33.2539 21.2402L38.9029 35.3718L42.668 33.8668L37.019 19.7352Z" stroke="#333333" stroke-width="1.81818" stroke-miterlimit="10" stroke-linecap="round" stroke-linejoin="round"/>
<path d="M76.7704 32.8271H59V50.5105H76.7704V32.8271Z" fill="#F9F9F9"/>
<path d="M76.7704 32.8271H59V50.5105H76.7704V32.8271Z" stroke="#333333" stroke-width="1.74048" stroke-miterlimit="10" stroke-linecap="round" stroke-linejoin="round"/>
<path d="M74.8525 48.5935V34.7393H60.9113V48.5935H74.8525Z" fill="#B7F2A7"/>
<path d="M93.4787 20H80.0596V37.6833H93.4787V20Z" fill="#F9F9F9"/>
<path d="M93.4787 20H80.0596V37.6833H93.4787V20Z" stroke="#333333" stroke-width="1.74048" stroke-miterlimit="10" stroke-linecap="round" stroke-linejoin="round"/>
<path d="M91.5488 35.7673V21.9131H81.9588V35.7673H91.5488Z" fill="#9FD3ED"/>
<path d="M98.3521 41.6689H80.0596V55.3666H98.3521V41.6689Z" fill="#F9F9F9"/>
<path d="M98.3521 41.6689H80.0596V55.3666H98.3521V41.6689Z" stroke="#333333" stroke-width="1.74048" stroke-miterlimit="10" stroke-linecap="round" stroke-linejoin="round"/>
<path d="M96.4336 53.4623V43.5938H81.9702V53.4623H96.4336Z" fill="#F97D7D"/>
<path d="M62.4805 42.1392L67.2494 37.3877" stroke="#333333" stroke-width="0.696194" stroke-miterlimit="10" stroke-linecap="round" stroke-linejoin="round"/>
<path d="M66.7627 41.6693L71.0617 37.3877" stroke="#333333" stroke-width="0.696194" stroke-miterlimit="10" stroke-linecap="round" stroke-linejoin="round"/>
<path d="M63.4209 45.0108L65.1788 43.2529" stroke="#333333" stroke-width="0.696194" stroke-miterlimit="10" stroke-linecap="round" stroke-linejoin="round"/>
<path d="M84.0283 28.2324L87.283 24.9951" stroke="#333333" stroke-width="0.696194" stroke-miterlimit="10" stroke-linecap="round" stroke-linejoin="round"/>
<path d="M88.9014 27.4494L90.1545 26.1963" stroke="#333333" stroke-width="0.696194" stroke-miterlimit="10" stroke-linecap="round" stroke-linejoin="round"/>
<path d="M83.5059 32.8275L87.509 28.8418" stroke="#333333" stroke-width="0.696194" stroke-miterlimit="10" stroke-linecap="round" stroke-linejoin="round"/>
<path d="M86.3428 51.2588L92.2082 45.376" stroke="#333333" stroke-width="0.696194" stroke-miterlimit="10" stroke-linecap="round" stroke-linejoin="round"/>
<path d="M85.4375 48.5264L88.083 45.8809" stroke="#333333" stroke-width="0.696194" stroke-miterlimit="10" stroke-linecap="round" stroke-linejoin="round"/>
</g>
</svg>
