<svg width="100" height="100" viewBox="0 0 100 100" fill="none" xmlns="http://www.w3.org/2000/svg">
<g clip-path="url(#clip0_237_4371)">
<path d="M100 0H0V100H100V0Z" fill="#5E5D60"/>
<path d="M48.5344 90.1255C58.7707 90.1255 67.0688 88.2842 67.0688 86.0129C67.0688 83.7416 58.7707 81.9004 48.5344 81.9004C38.2981 81.9004 30 83.7416 30 86.0129C30 88.2842 38.2981 90.1255 48.5344 90.1255Z" fill="#4C3142"/>
<path d="M34.0939 42.6167V84.3005C34.0939 86.0684 39.5835 87.4827 46.3758 87.4827C53.168 87.4827 58.6576 86.0498 58.6576 84.3005V42.6167H34.0939Z" fill="#F04E64"/>
<path d="M34.0939 42.6167V84.3005C34.0939 86.0684 39.5835 87.4827 46.3758 87.4827C53.168 87.4827 58.6576 86.0498 58.6576 84.3005V42.6167H34.0939Z" fill="#F04E64"/>
<path opacity="0.26" d="M43.8078 65.0593C45.7091 65.0593 47.2504 63.518 47.2504 61.6167C47.2504 59.7154 45.7091 58.1741 43.8078 58.1741C41.9064 58.1741 40.3651 59.7154 40.3651 61.6167C40.3651 63.518 41.9064 65.0593 43.8078 65.0593Z" fill="#F1A899"/>
<path opacity="0.15" d="M45.0917 67.181C46.2634 67.181 47.2132 66.2313 47.2132 65.0596C47.2132 63.888 46.2634 62.9382 45.0917 62.9382C43.9201 62.9382 42.9703 63.888 42.9703 65.0596C42.9703 66.2313 43.9201 67.181 45.0917 67.181Z" fill="#F1A899"/>
<path opacity="0.15" d="M52.4423 65.4874C53.6139 65.4874 54.5637 64.5377 54.5637 63.366C54.5637 62.1944 53.6139 61.2446 52.4423 61.2446C51.2706 61.2446 50.3209 62.1944 50.3209 63.366C50.3209 64.5377 51.2706 65.4874 52.4423 65.4874Z" fill="#F1A899"/>
<path opacity="0.15" d="M53.4472 80.3744C54.6188 80.3744 55.5686 79.4246 55.5686 78.253C55.5686 77.0814 54.6188 76.1316 53.4472 76.1316C52.2755 76.1316 51.3257 77.0814 51.3257 78.253C51.3257 79.4246 52.2755 80.3744 53.4472 80.3744Z" fill="#F1A899"/>
<path opacity="0.15" d="M44.0311 85.3434C45.2028 85.3434 46.1525 84.3936 46.1525 83.222C46.1525 82.0504 45.2028 81.1006 44.0311 81.1006C42.8595 81.1006 41.9097 82.0504 41.9097 83.222C41.9097 84.3936 42.8595 85.3434 44.0311 85.3434Z" fill="#F1A899"/>
<path opacity="0.15" d="M42.6168 51.4193C43.7884 51.4193 44.7382 50.4695 44.7382 49.2979C44.7382 48.1263 43.7884 47.1765 42.6168 47.1765C41.4451 47.1765 40.4954 48.1263 40.4954 49.2979C40.4954 50.4695 41.4451 51.4193 42.6168 51.4193Z" fill="#F1A899"/>
<path opacity="0.15" d="M54.8986 54.2475C56.0703 54.2475 57.0201 53.2977 57.0201 52.1261C57.0201 50.9544 56.0703 50.0046 54.8986 50.0046C53.727 50.0046 52.7772 50.9544 52.7772 52.1261C52.7772 53.2977 53.727 54.2475 54.8986 54.2475Z" fill="#F1A899"/>
<path opacity="0.15" d="M42.9704 77.5272C43.7412 77.5272 44.366 76.9023 44.366 76.1315C44.366 75.3607 43.7412 74.7358 42.9704 74.7358C42.1996 74.7358 41.5747 75.3607 41.5747 76.1315C41.5747 76.9023 42.1996 77.5272 42.9704 77.5272Z" fill="#F1A899"/>
<path opacity="0.15" d="M36.1595 69.0975C36.9303 69.0975 37.5552 68.4726 37.5552 67.7018C37.5552 66.931 36.9303 66.3062 36.1595 66.3062C35.3887 66.3062 34.7639 66.931 34.7639 67.7018C34.7639 68.4726 35.3887 69.0975 36.1595 69.0975Z" fill="#F1A899"/>
<path d="M54.8986 42.6167V86.5894C57.2061 86.0126 58.6576 85.1938 58.6576 84.3005V42.6167H54.8986Z" fill="#AF3457"/>
<path d="M34.0381 42.6167V84.3005C34.0381 86.0684 39.5277 87.4827 46.3199 87.4827C53.1122 87.4827 58.6018 86.0498 58.6018 84.3005V42.6167H34.0381Z" stroke="#4C3142" stroke-width="1.48871" stroke-miterlimit="10" stroke-linecap="round" stroke-linejoin="round"/>
<path d="M46.3758 45.8735C53.1589 45.8735 58.6576 44.4488 58.6576 42.6914C58.6576 40.934 53.1589 39.5093 46.3758 39.5093C39.5927 39.5093 34.0939 40.934 34.0939 42.6914C34.0939 44.4488 39.5927 45.8735 46.3758 45.8735Z" fill="#F1A899"/>
<path d="M46.3758 40.998C52.1631 40.998 57.02 42.0401 58.3227 43.4357C58.546 43.1938 58.6576 42.9519 58.6576 42.6914C58.6576 40.9236 53.168 39.5093 46.3758 39.5093C39.5835 39.5093 34.0939 40.9422 34.0939 42.6914C34.0939 42.9519 34.2056 43.1938 34.4289 43.4357C35.7315 42.0401 40.5884 40.998 46.3758 40.998Z" fill="#F9CCC5"/>
<path d="M58.1924 41.8169C56.7223 43.1567 51.9957 44.1244 46.3758 44.1244C40.7559 44.1244 36.0293 43.1381 34.5592 41.8169C34.2614 42.096 34.0939 42.3938 34.0939 42.6915C34.0939 44.4594 39.5835 45.8736 46.3758 45.8736C53.168 45.8736 58.6576 44.4407 58.6576 42.6915C58.6576 42.3938 58.4901 42.096 58.1924 41.8169Z" fill="#E59588"/>
<path d="M46.9526 44.1243C47.9495 44.1243 48.7577 43.7994 48.7577 43.3986C48.7577 42.9978 47.9495 42.6729 46.9526 42.6729C45.9557 42.6729 45.1476 42.9978 45.1476 43.3986C45.1476 43.7994 45.9557 44.1243 46.9526 44.1243Z" fill="#4C3142"/>
<path d="M46.3199 45.8735C53.103 45.8735 58.6018 44.4488 58.6018 42.6914C58.6018 40.934 53.103 39.5093 46.3199 39.5093C39.5369 39.5093 34.0381 40.934 34.0381 42.6914C34.0381 44.4488 39.5369 45.8735 46.3199 45.8735Z" stroke="#4C3142" stroke-width="1.48871" stroke-miterlimit="10" stroke-linecap="round" stroke-linejoin="round"/>
<path d="M34.0939 56.5735L58.6018 46.2642" stroke="#4C3142" stroke-width="1.6748" stroke-miterlimit="10" stroke-linejoin="round"/>
<path d="M48.9438 59.3834L57.9691 55.5872" stroke="#4C3142" stroke-width="1.6748" stroke-miterlimit="10" stroke-linecap="round" stroke-linejoin="round"/>
<path d="M34.373 65.506L45.0917 61.0027" stroke="#4C3142" stroke-width="1.6748" stroke-miterlimit="10" stroke-linecap="round" stroke-linejoin="round"/>
<path d="M34.0939 74.6801L58.6018 64.3894" stroke="#4C3142" stroke-width="1.6748" stroke-miterlimit="10" stroke-linejoin="round"/>
<path d="M34.0939 83.7426L58.6018 73.4333" stroke="#4C3142" stroke-width="1.6748" stroke-miterlimit="10" stroke-linejoin="round"/>
<path d="M38.8765 75.4807V81.938" stroke="#FFFDFD" stroke-width="1.48871" stroke-miterlimit="10" stroke-linecap="round" stroke-linejoin="round"/>
<path d="M38.8765 49.9858V71.386" stroke="#FFFDFD" stroke-width="1.48871" stroke-miterlimit="10" stroke-linecap="round" stroke-linejoin="round"/>
<path d="M49.4276 31.3774C49.4276 31.3774 50.1906 31.6194 51.3443 31.9915C52.4795 32.3637 54.024 32.8475 55.5499 33.3314C56.3129 33.5733 57.0945 33.8152 57.8016 34.0199C58.1552 34.1315 58.5087 34.2432 58.8437 34.3362C59.1787 34.4293 59.4764 34.5409 59.7742 34.634C60.0533 34.727 60.3138 34.8201 60.5557 34.9131C60.779 35.0062 60.9837 35.0992 61.1326 35.1736C61.4489 35.3411 61.6164 35.49 61.6164 35.49C61.7467 35.6016 61.7653 35.8063 61.635 35.918C61.5792 35.9924 61.4862 36.011 61.4117 36.0297C61.4117 36.0297 61.1884 36.0297 60.8535 35.9552C60.686 35.918 60.4627 35.8622 60.2394 35.7877C60.0161 35.6947 59.7555 35.6016 59.4764 35.5086C59.1973 35.397 58.8809 35.2853 58.5646 35.155C58.2482 35.0248 57.9133 34.8945 57.5597 34.7456C56.8712 34.4479 56.1268 34.1502 55.3825 33.8338C53.8937 33.2383 52.405 32.6242 51.2885 32.1776C50.172 31.731 49.4276 31.4333 49.4276 31.4333C49.409 31.4333 49.3904 31.3961 49.409 31.3774C49.3904 31.3774 49.409 31.3774 49.4276 31.3774Z" fill="#FFDFAC"/>
<path d="M49.4276 30.3726C49.4276 30.3726 50.693 30.4098 52.5725 30.4656C54.452 30.5214 56.9642 30.5773 59.495 30.6517C60.7604 30.6703 62.0072 30.6889 63.1982 30.7261C63.7937 30.7447 64.3519 30.7447 64.8916 30.7633C65.4313 30.782 65.9337 30.8006 66.4175 30.8192C66.8827 30.8378 67.3294 30.8564 67.7015 30.875C68.0923 30.8936 68.4087 30.9308 68.6878 30.968C69.2275 31.0425 69.5438 31.1355 69.5438 31.1355C69.6927 31.1913 69.7857 31.3402 69.7485 31.5077C69.7113 31.6194 69.6182 31.6938 69.5252 31.7124C69.5252 31.7124 69.2089 31.7682 68.6506 31.8054C68.3715 31.8241 68.0365 31.8241 67.6643 31.8054C67.2735 31.7868 66.8455 31.7682 66.3803 31.731C65.9151 31.6938 65.394 31.6752 64.8544 31.6194C64.3147 31.5821 63.7379 31.5263 63.161 31.4891C61.9886 31.396 60.7232 31.303 59.4764 31.1914C56.9642 31.0053 54.452 30.8192 52.5725 30.6889C50.693 30.5586 49.4276 30.4656 49.4276 30.4656C49.409 30.4656 49.3904 30.447 49.3904 30.4284C49.3718 30.3912 49.3904 30.3726 49.4276 30.3726Z" fill="#FFDFAC"/>
<path d="M49.3346 29.6468C49.3346 29.6468 50.0975 29.4607 51.2141 29.1816C52.3492 28.9024 53.8565 28.5117 55.3638 28.1209C56.1082 27.9162 56.8712 27.7115 57.5783 27.5254C57.9319 27.4323 58.2668 27.3393 58.6018 27.2649C58.9181 27.1718 59.2345 27.116 59.5136 27.0416C59.7928 26.9857 60.0533 26.9113 60.2952 26.8741C60.5185 26.8183 60.7418 26.7996 60.9093 26.7996C61.2442 26.781 61.4675 26.8183 61.4675 26.8183C61.635 26.8555 61.7467 27.0043 61.7095 27.1718C61.6909 27.2649 61.6536 27.3207 61.5792 27.3765C61.5792 27.3765 61.4117 27.4882 61.0768 27.6184C60.9093 27.6743 60.7232 27.7487 60.4813 27.8045C60.258 27.8603 59.9788 27.9162 59.6997 27.972C59.4206 28.0278 59.1042 28.0837 58.7693 28.1395C58.4343 28.1953 58.0994 28.2511 57.7272 28.307C57.0014 28.4186 56.2385 28.5489 55.4755 28.6791C53.9496 28.9583 52.405 29.2188 51.2513 29.4235C50.0975 29.6282 49.3346 29.7771 49.3346 29.7771C49.316 29.7771 49.2974 29.7584 49.2787 29.7398C49.2974 29.6654 49.316 29.6468 49.3346 29.6468Z" fill="#FFDFAC"/>
<path d="M50.3208 27.0231C50.3208 27.0231 51.214 26.502 52.5352 25.739C53.8565 24.9761 55.6243 23.934 57.3922 22.8919C58.2668 22.3708 59.1414 21.8498 59.9788 21.3474C60.3882 21.1054 60.7976 20.8635 61.1698 20.6402C61.5419 20.4169 61.9141 20.2122 62.2491 20.0261C62.584 19.84 62.9004 19.6726 63.1609 19.5237C63.44 19.3748 63.6819 19.2632 63.8866 19.1887C64.296 19.0213 64.5566 18.9654 64.5566 18.9654C64.7241 18.9282 64.8729 19.0399 64.9101 19.2073C64.9287 19.3004 64.8915 19.412 64.8357 19.4679C64.8357 19.4679 64.6496 19.654 64.2774 19.9145C64.0914 20.0447 63.868 20.1936 63.5889 20.3425C63.3098 20.4913 63.012 20.6588 62.6771 20.8449C62.3421 21.031 61.9699 21.2171 61.5792 21.4218C61.1884 21.6265 60.779 21.8312 60.351 22.0359C59.495 22.4639 58.5831 22.9105 57.6713 23.3757C55.8476 24.3062 54.024 25.218 52.6655 25.9251C51.3071 26.6323 50.3952 27.0975 50.3952 27.0975C50.3766 27.1161 50.3394 27.0975 50.3394 27.0789C50.2836 27.0603 50.3022 27.0231 50.3208 27.0231Z" fill="#FFDFAC"/>
<path d="M49.0182 26.2413C49.0182 26.2413 50.1719 25.2923 51.9025 23.8594C53.6332 22.4451 55.9407 20.5284 58.2296 18.6117C59.3833 17.644 60.5184 16.695 61.5978 15.7831C62.1374 15.3365 62.6585 14.9085 63.1423 14.4805C63.6261 14.0711 64.11 13.6803 64.538 13.3268C64.9846 12.9732 65.3754 12.6568 65.7289 12.3777C66.0825 12.0986 66.4175 11.8567 66.678 11.6892C67.2176 11.317 67.5712 11.1495 67.5712 11.1495C67.7201 11.0751 67.8876 11.1309 67.962 11.2798C68.0178 11.3914 67.9992 11.5031 67.9248 11.5961C67.9248 11.5961 67.6829 11.8939 67.199 12.3405C66.9571 12.5638 66.6594 12.8243 66.3058 13.1221C65.9522 13.4012 65.5428 13.7175 65.0962 14.0711C64.6496 14.4061 64.1658 14.7969 63.6633 15.169C63.1423 15.5598 62.6026 15.9692 62.0444 16.3972C60.9278 17.2346 59.7369 18.1465 58.5273 19.0397C56.1454 20.8447 53.7634 22.6684 51.9956 24.0269C50.2091 25.3853 49.0368 26.2971 49.0368 26.2971C49.0182 26.3157 48.9996 26.3157 48.981 26.2971C48.9996 26.2971 48.9996 26.2599 49.0182 26.2413Z" fill="#FFDFAC"/>
<path d="M46.934 31.0799C46.934 31.0799 46.4688 31.3591 45.7803 31.8057C45.0918 32.2337 44.1613 32.8292 43.2309 33.4061C42.7657 33.7038 42.319 34.0015 41.891 34.2807C41.6677 34.4109 41.463 34.5598 41.2769 34.6715C41.0723 34.8017 40.8862 34.9134 40.7187 35.025C40.5512 35.1367 40.3837 35.2297 40.2349 35.3042C40.086 35.3786 39.9557 35.453 39.8441 35.4902C39.6208 35.5833 39.4905 35.6205 39.4905 35.6205C39.3975 35.6391 39.3044 35.5833 39.2858 35.4716C39.2672 35.4158 39.2858 35.36 39.323 35.3228C39.323 35.3228 39.4161 35.2111 39.6022 35.0622C39.6952 34.9878 39.8255 34.9134 39.9557 34.8203C40.1046 34.7273 40.2721 34.6528 40.4396 34.5412C40.6256 34.4481 40.8117 34.3365 41.0164 34.2248C41.2211 34.1132 41.4444 34.0015 41.6677 33.8713C42.1143 33.6294 42.5982 33.3688 43.082 33.1269C44.0497 32.6059 44.9987 32.0848 45.7245 31.694C46.4502 31.3032 46.9154 31.0427 46.9154 31.0427C46.934 31.0427 46.9527 31.0427 46.9527 31.0613C46.934 31.0427 46.934 31.0613 46.934 31.0799Z" fill="#FFDFAC"/>
<path d="M46.7851 30.4098C46.7851 30.4098 45.9663 30.6145 44.7195 30.9309C43.4728 31.2472 41.8166 31.6752 40.1604 32.1032C39.3416 32.3265 38.5042 32.5498 37.7412 32.7545C37.3504 32.8476 36.9783 32.9592 36.6247 33.0523C36.2711 33.1453 35.9362 33.2198 35.6198 33.3128C35.3035 33.3872 35.0243 33.4617 34.7638 33.5175C34.5033 33.5733 34.28 33.6106 34.0939 33.6478C33.7217 33.7036 33.4984 33.7036 33.4984 33.7036C33.4054 33.7036 33.3123 33.6292 33.3123 33.5361C33.3123 33.4617 33.3495 33.4059 33.4054 33.3686C33.4054 33.3686 33.6101 33.2756 33.9636 33.1639C34.1497 33.1081 34.3544 33.0337 34.6149 32.9778C34.8755 32.922 35.1546 32.8476 35.4709 32.7732C35.7873 32.6987 36.1223 32.6243 36.4758 32.5498C36.8294 32.4754 37.2202 32.401 37.611 32.3079C38.3925 32.1405 39.2299 31.973 40.0673 31.8055C41.7421 31.4519 43.4169 31.0797 44.6637 30.8192C45.9105 30.5401 46.7479 30.354 46.7479 30.354C46.7665 30.354 46.7665 30.354 46.7851 30.3726C46.8223 30.3912 46.8037 30.3912 46.7851 30.4098Z" fill="#FFDFAC"/>
<path d="M46.7479 29.9074C46.7479 29.9074 46.2269 29.9074 45.4267 29.9074C44.6265 29.9074 43.5844 29.9074 42.5237 29.926C42.0027 29.926 41.463 29.9446 40.9792 29.9446C40.7373 29.9446 40.4954 29.9446 40.2721 29.9446C40.0488 29.9446 39.8254 29.9446 39.6394 29.9446C39.4347 29.9446 39.2672 29.9446 39.0997 29.926C38.9322 29.926 38.802 29.9074 38.6903 29.8888C38.467 29.8516 38.3367 29.7957 38.3367 29.7957C38.2437 29.7585 38.2065 29.6469 38.2437 29.5538C38.2623 29.498 38.2995 29.4608 38.3553 29.4422C38.3553 29.4422 38.4856 29.4049 38.7275 29.3677C38.8392 29.3491 38.988 29.3491 39.1369 29.3491C39.3044 29.3491 39.4719 29.3677 39.6766 29.3677C39.8813 29.3863 40.086 29.3863 40.3093 29.405C40.5326 29.4236 40.7745 29.4422 41.0164 29.4608C41.5189 29.498 42.0399 29.5352 42.561 29.5724C43.6217 29.6469 44.6637 29.7213 45.4639 29.7585C46.2641 29.7957 46.7852 29.833 46.7852 29.833C46.8038 29.833 46.8038 29.8516 46.8038 29.8516C46.7665 29.9074 46.7666 29.9074 46.7479 29.9074Z" fill="#FFDFAC"/>
<path d="M47.0643 28.4004C47.0643 28.4004 46.2455 28.0468 45.0173 27.4885C43.7891 26.9489 42.1516 26.2231 40.514 25.516C39.6952 25.1624 38.8764 24.8089 38.0948 24.4739C37.7041 24.3064 37.3319 24.1389 36.9783 23.9901C36.6247 23.8412 36.2898 23.6923 35.992 23.5435C35.6943 23.4132 35.4152 23.2829 35.1546 23.1713C34.9127 23.0596 34.6894 22.948 34.5219 22.8549C34.187 22.6688 34.0009 22.52 34.0009 22.52C33.9265 22.4641 33.9078 22.3525 33.9637 22.278C34.0009 22.2222 34.0753 22.2036 34.1498 22.2036C34.1498 22.2036 34.3731 22.2594 34.7452 22.3897C34.9313 22.4641 35.1546 22.5386 35.3966 22.6688C35.6385 22.7805 35.9176 22.9108 36.2153 23.0596C36.5131 23.2085 36.848 23.3574 37.183 23.5248C37.5366 23.6923 37.8901 23.8784 38.2623 24.0645C39.0067 24.4367 39.8069 24.8275 40.607 25.2369C42.2074 26.0184 43.8264 26.8 45.0173 27.3955C46.2269 27.9724 47.0271 28.3631 47.0271 28.3631C47.0457 28.3631 47.0457 28.3818 47.0457 28.4004C47.0829 28.4004 47.0643 28.4004 47.0643 28.4004Z" fill="#FFDFAC"/>
<path d="M45.743 28.2697C45.743 28.2697 44.8683 28.065 43.5471 27.7673C42.2259 27.4695 40.4767 27.0787 38.7274 26.6693C37.8528 26.4833 36.9782 26.2786 36.1408 26.0925C35.7314 25.9994 35.3406 25.9064 34.9498 25.8319C34.5776 25.7575 34.2241 25.6645 33.8891 25.59C33.5542 25.5156 33.2564 25.4412 32.9959 25.3667C32.7354 25.2923 32.4935 25.2365 32.3074 25.162C31.9352 25.0318 31.7305 24.9387 31.7305 24.9387C31.6374 24.9015 31.6002 24.7898 31.6561 24.6968C31.6933 24.641 31.7491 24.6038 31.8235 24.6038C31.8235 24.6038 32.0468 24.6038 32.4376 24.6782C32.6237 24.7154 32.8656 24.7526 33.1262 24.8271C33.3867 24.9015 33.6844 24.9759 34.0194 25.0504C34.3543 25.1434 34.7079 25.2179 35.0801 25.3295C35.4523 25.4226 35.843 25.5342 36.2524 25.6459C37.0712 25.8692 37.9272 26.1111 38.8019 26.353C40.5325 26.8182 42.2817 27.2834 43.5843 27.637C44.887 27.9906 45.7616 28.2139 45.7616 28.2139C45.7802 28.2139 45.7802 28.2325 45.7802 28.2511C45.7802 28.2697 45.7616 28.2697 45.743 28.2697Z" fill="#FFDFAC"/>
<path d="M46.506 27.5998C46.506 27.5998 45.5384 26.9113 44.0683 25.8506C42.5982 24.8085 40.6442 23.4128 38.6903 22.0358C37.704 21.3473 36.7364 20.6587 35.8059 20.0074C35.3407 19.6911 34.9127 19.3747 34.4847 19.077C34.0567 18.7792 33.6659 18.5001 33.3123 18.221C32.9402 17.9604 32.6238 17.7185 32.3261 17.4952C32.0283 17.2719 31.7864 17.0858 31.5817 16.9184C31.1723 16.5834 30.9676 16.3601 30.9676 16.3601C30.8932 16.2857 30.8932 16.174 30.9676 16.1182C31.0235 16.0623 31.0979 16.0623 31.1723 16.081C31.1723 16.081 31.4515 16.2112 31.8795 16.509C32.1028 16.6578 32.3633 16.8253 32.661 17.0486C32.9588 17.2719 33.2937 17.5138 33.6473 17.7744C34.0009 18.0349 34.3917 18.3326 34.8011 18.649C35.2105 18.9653 35.6385 19.2817 36.0851 19.6352C36.9783 20.3238 37.9273 21.0495 38.8764 21.7753C40.7931 23.2268 42.7098 24.6596 44.1427 25.7576C45.5756 26.8369 46.5432 27.5626 46.5432 27.5626C46.5619 27.5626 46.5619 27.5812 46.5432 27.5998C46.5246 27.5998 46.5246 27.5998 46.506 27.5998Z" fill="#FFDFAC"/>
<path d="M46.7293 26.8743C46.7293 26.8743 46.4502 26.6324 46.0408 26.2975C45.6314 25.9439 45.0731 25.4787 44.5335 25.0321C43.9752 24.5668 43.4169 24.1202 43.0075 23.7667C42.9145 23.6736 42.8215 23.5992 42.7284 23.5248C42.654 23.4503 42.5795 23.3759 42.5423 23.3014C42.4493 23.1712 42.4121 23.0781 42.4121 23.0781C42.3748 22.9851 42.4307 22.8734 42.5423 22.8362C42.5795 22.8176 42.6168 22.8176 42.654 22.8362C42.654 22.8362 42.747 22.8548 42.8959 22.9479C42.9703 22.9851 43.0448 23.0409 43.1192 23.1154C43.1936 23.1898 43.2867 23.2828 43.3797 23.3759C43.7705 23.7481 44.2543 24.2877 44.7382 24.8088C45.2406 25.3298 45.7244 25.8509 46.1152 26.223C46.4874 26.6138 46.7479 26.8557 46.7479 26.8557C46.7665 26.8743 46.7665 26.8743 46.7479 26.893C46.7479 26.8743 46.7479 26.8743 46.7293 26.8743Z" fill="#FFDFAC"/>
<path d="M47.4736 26.5204C47.4736 26.5204 47.1573 26.0738 46.6921 25.4225C46.2268 24.7526 45.5941 23.8779 44.98 23.0033C44.6637 22.5753 44.3473 22.1287 44.0496 21.7193C43.9007 21.5146 43.7519 21.3099 43.6216 21.1238C43.4913 20.9377 43.3611 20.7517 43.2494 20.5842C43.1378 20.4167 43.0261 20.2678 42.9331 20.119C42.84 19.9887 42.7656 19.8584 42.7284 19.7468C42.6167 19.5421 42.5795 19.3932 42.5795 19.3932C42.5609 19.3002 42.6167 19.1885 42.7098 19.1699C42.7656 19.1513 42.8214 19.1699 42.8586 19.2071C42.8586 19.2071 42.9703 19.3002 43.1192 19.4676C43.1936 19.5607 43.2866 19.6723 43.3797 19.8026C43.4727 19.9329 43.5658 20.1003 43.6774 20.2678C43.7891 20.4353 43.9007 20.6214 44.031 20.8261C44.1426 21.0308 44.2729 21.2355 44.4032 21.4588C44.6637 21.8868 44.9428 22.352 45.222 22.8172C45.7802 23.7291 46.3571 24.6595 46.7851 25.348C47.2131 26.0366 47.4922 26.5018 47.4922 26.5018C47.4922 26.5204 47.4922 26.539 47.4922 26.539C47.5108 26.539 47.4922 26.539 47.4736 26.5204Z" fill="#FFDFAC"/>
<path d="M48.4228 26.0367C48.4228 26.0367 47.7342 24.6969 47.0271 23.3384C46.841 23.0035 46.6735 22.6685 46.5061 22.3522C46.3386 22.0358 46.1897 21.7381 46.0594 21.4961C45.9292 21.2356 45.8175 21.0309 45.7803 20.8634C45.7245 20.7146 45.7059 20.6029 45.7059 20.6029C45.7059 20.5285 45.7431 20.4727 45.8175 20.4727C45.8547 20.4727 45.892 20.4913 45.9106 20.5099C45.9106 20.5099 45.985 20.5843 46.078 20.7146C46.1711 20.8448 46.2641 21.0681 46.3944 21.3287C46.5247 21.5892 46.6549 21.8869 46.7852 22.2219C46.9341 22.5568 47.0829 22.8918 47.2318 23.2454C47.8459 24.641 48.46 26.0181 48.46 26.0181V26.0367C48.4414 26.0553 48.4228 26.0367 48.4228 26.0367Z" fill="#FFDFAC"/>
<path d="M48.4227 24.8087C48.4227 24.8087 48.4413 22.6501 48.4599 20.5101C48.4599 19.9704 48.4599 19.4308 48.4599 18.9283C48.4599 18.4259 48.4599 17.9607 48.4785 17.5513C48.4785 17.1419 48.4971 16.8069 48.5157 16.5836C48.5343 16.3417 48.5715 16.2115 48.5715 16.2115C48.5901 16.1556 48.646 16.1184 48.7204 16.1184C48.7576 16.137 48.7948 16.1742 48.8134 16.2115C48.8134 16.2115 48.8321 16.3417 48.8507 16.5836C48.8693 16.8255 48.8507 17.1605 48.8321 17.5513C48.8135 17.9607 48.7948 18.4259 48.7576 18.9283C48.7204 19.4308 48.7018 19.9704 48.6646 20.5101C48.5529 22.6687 48.4599 24.8087 48.4599 24.8087C48.4599 24.8087 48.4413 24.8274 48.4227 24.8087Z" fill="#FFDFAC"/>
<path d="M48.5529 25.7761C48.5529 25.7761 49.1298 24.0268 49.7067 22.2776C49.8369 21.831 49.9858 21.403 50.1161 20.9936C50.2463 20.5842 50.3766 20.1934 50.4883 19.877C50.5999 19.5421 50.693 19.2816 50.786 19.0955C50.879 18.9094 50.9349 18.8163 50.9349 18.8163C50.9721 18.7605 51.0465 18.7419 51.1023 18.7791C51.1396 18.7977 51.1582 18.8536 51.1582 18.8908C51.1582 18.8908 51.1582 19.0024 51.1023 19.2071C51.0651 19.4118 50.9535 19.6724 50.8418 20.0073C50.7302 20.3237 50.5813 20.7144 50.4138 21.1052C50.2463 21.5146 50.0789 21.9426 49.9114 22.3706C49.2415 24.0826 48.5902 25.8133 48.5902 25.8133L48.5715 25.8319C48.5529 25.7947 48.5343 25.7761 48.5529 25.7761Z" fill="#FFDFAC"/>
<path d="M48.4227 26.0367C48.4227 26.0367 48.2367 25.1248 47.9575 23.7478C47.6784 22.3893 47.2876 20.5657 46.8968 18.742C46.6921 17.8302 46.506 16.9183 46.3199 16.0623C46.2269 15.6343 46.1338 15.2249 46.0594 14.8341C45.9664 14.4433 45.9105 14.0712 45.8361 13.7362C45.7617 13.4012 45.7058 13.0849 45.65 12.8058C45.5942 12.5266 45.557 12.2847 45.5384 12.08C45.4825 11.6706 45.5011 11.4287 45.5011 11.4287C45.5011 11.3357 45.5756 11.2612 45.6872 11.2612C45.7617 11.2612 45.8175 11.2984 45.8547 11.3729C45.8547 11.3729 45.9478 11.5962 46.0594 11.987C46.1152 12.1917 46.1711 12.4336 46.2269 12.7127C46.2827 12.9919 46.3385 13.3082 46.3944 13.6432C46.4502 13.9781 46.5246 14.3503 46.5991 14.7597C46.6735 15.1505 46.7293 15.5785 46.8038 16.0065C46.9526 16.8625 47.1015 17.7929 47.2504 18.7048C47.5667 20.547 47.8831 22.3707 48.1064 23.7478C48.3483 25.1248 48.4972 26.0367 48.4972 26.0367C48.4972 26.0553 48.4972 26.0553 48.4786 26.0739C48.4227 26.0553 48.4227 26.0553 48.4227 26.0367Z" fill="#FFDFAC"/>
<path d="M48.7205 24.3059C48.7205 24.3059 48.8693 23.4126 49.0926 22.0914C49.3159 20.7516 49.5951 18.9837 49.8928 17.1973C50.0231 16.3041 50.1719 15.4108 50.3022 14.592C50.3766 14.1826 50.4325 13.7733 50.4883 13.3825C50.5441 12.9917 50.6186 12.6381 50.6744 12.3032C50.7302 11.9682 50.786 11.6705 50.8419 11.3913C50.8977 11.1308 50.9535 10.8889 50.9907 10.7028C51.0838 10.312 51.1768 10.1073 51.1768 10.1073C51.214 10.0143 51.3257 9.97704 51.4001 10.0143C51.4746 10.0329 51.5118 10.1073 51.5118 10.1631C51.5118 10.1631 51.5118 10.3864 51.4746 10.7772C51.456 10.9819 51.4187 11.2052 51.3815 11.4844C51.3257 11.7449 51.2699 12.0612 51.2141 12.3962C51.1582 12.7312 51.0838 13.0847 51.0093 13.4569C50.9349 13.8291 50.8419 14.2385 50.7674 14.6479C50.6 15.4667 50.4139 16.3599 50.2278 17.2345C49.8742 19.0023 49.502 20.7702 49.2415 22.0914C48.981 23.4126 48.7949 24.3059 48.7949 24.3059C48.7949 24.3245 48.7763 24.3245 48.7577 24.3245C48.7391 24.3245 48.7205 24.3245 48.7205 24.3059Z" fill="#FFDFAC"/>
<path d="M52.7214 14.2761L52.9447 15.3554L54.024 15.5787L53.0563 16.137L53.1866 17.2349L52.3678 16.4906L51.3629 16.9372L51.8095 15.9323L51.0652 15.1135L52.1631 15.2438L52.7214 14.2761Z" fill="#FFDFAC"/>
<path d="M39.0252 17.2532L39.1555 17.8487L39.751 17.9603L39.2113 18.2581L39.2858 18.8721L38.8392 18.4627L38.2809 18.7047L38.5414 18.165L38.132 17.7184L38.7275 17.7742L39.0252 17.2532Z" fill="#FFDFAC"/>
<path d="M34.8755 26.5393L35.0244 27.3023L35.7873 27.4511L35.1174 27.8419L35.1918 28.6049L34.6336 28.0838L33.9264 28.4002L34.2428 27.6931L33.7217 27.1348L34.4847 27.2092L34.8755 26.5393Z" fill="#FFDFAC"/>
<path d="M43.0634 34.6526L43.1192 34.9689L43.4355 35.0248L43.1564 35.1736L43.1936 35.49L42.9517 35.2853L42.6726 35.4156L42.8028 35.1178L42.5981 34.8945L42.8959 34.9317L43.0634 34.6526Z" fill="#FFDFAC"/>
<path d="M38.4856 30.075L38.56 30.3727L38.8391 30.4285L38.5786 30.5774L38.6158 30.8751L38.3925 30.6704L38.132 30.8007L38.2436 30.5216L38.0576 30.2983L38.3553 30.3355L38.4856 30.075Z" fill="#FCE47E"/>
<path d="M62.2119 22.3147L62.4538 23.394L63.5331 23.6173L62.5654 24.1756L62.6957 25.2735L61.8769 24.5292L60.872 24.9944L61.3186 23.9709L60.5743 23.1521L61.6722 23.2824L62.2119 22.3147Z" fill="#FFDFAC"/>
<path d="M63.8308 20.7146L63.9239 21.1984L64.4263 21.2915L63.9797 21.552L64.0355 22.0358L63.6634 21.7009L63.2168 21.9056L63.4214 21.459L63.0865 21.0868L63.5889 21.1426L63.8308 20.7146Z" fill="#FFDFAC"/>
<path d="M57.3551 20.4727L57.4295 20.789L57.7458 20.8634L57.4667 21.0309L57.5039 21.3473L57.262 21.124L56.9457 21.2728L57.0945 20.9565L56.8712 20.7146L57.1876 20.7518L57.3551 20.4727Z" fill="#FFDFAC"/>
<path d="M43.9008 17.2352C44.3222 17.2352 44.6638 16.8936 44.6638 16.4722C44.6638 16.0508 44.3222 15.7092 43.9008 15.7092C43.4795 15.7092 43.1379 16.0508 43.1379 16.4722C43.1379 16.8936 43.4795 17.2352 43.9008 17.2352Z" fill="#F73152"/>
<path d="M36.7736 30.6889C36.9792 30.6889 37.1458 30.5223 37.1458 30.3168C37.1458 30.1112 36.9792 29.9446 36.7736 29.9446C36.5681 29.9446 36.4014 30.1112 36.4014 30.3168C36.4014 30.5223 36.5681 30.6889 36.7736 30.6889Z" fill="#F73152"/>
<path d="M59.1786 29.6656C59.4664 29.6656 59.6997 29.4324 59.6997 29.1446C59.6997 28.8568 59.4664 28.6235 59.1786 28.6235C58.8909 28.6235 58.6576 28.8568 58.6576 29.1446C58.6576 29.4324 58.8909 29.6656 59.1786 29.6656Z" fill="#F73152"/>
<path d="M51.0279 34.5782C51.3156 34.5782 51.5489 34.345 51.5489 34.0572C51.5489 33.7694 51.3156 33.5361 51.0279 33.5361C50.7401 33.5361 50.5068 33.7694 50.5068 34.0572C50.5068 34.345 50.7401 34.5782 51.0279 34.5782Z" fill="#F73152"/>
<path d="M58.9181 20.4544C59.062 20.4544 59.1786 20.3378 59.1786 20.1939C59.1786 20.05 59.062 19.9333 58.9181 19.9333C58.7742 19.9333 58.6576 20.05 58.6576 20.1939C58.6576 20.3378 58.7742 20.4544 58.9181 20.4544Z" fill="#F73152"/>
<path d="M52.9261 18.7791C53.07 18.7791 53.1866 18.6625 53.1866 18.5186C53.1866 18.3747 53.07 18.2581 52.9261 18.2581C52.7822 18.2581 52.6656 18.3747 52.6656 18.5186C52.6656 18.6625 52.7822 18.7791 52.9261 18.7791Z" fill="#F73152"/>
<path d="M42.5236 20.9749C42.6675 20.9749 42.7842 20.8583 42.7842 20.7144C42.7842 20.5705 42.6675 20.4539 42.5236 20.4539C42.3798 20.4539 42.2631 20.5705 42.2631 20.7144C42.2631 20.8583 42.3798 20.9749 42.5236 20.9749Z" fill="#F73152"/>
<path d="M47.7528 30.6887C45.8361 37.053 42.2073 41.6679 46.7851 43.1939" stroke="white" stroke-width="1.30262" stroke-miterlimit="10" stroke-linecap="round" stroke-linejoin="round"/>
<path d="M49.5392 24.8461L49.93 26.7256C49.9486 26.8 50.0044 26.8558 50.0789 26.8744L51.9584 27.2652C52.6283 27.3955 52.7586 28.2887 52.1817 28.6237L50.5255 29.5727C50.4697 29.6099 50.4324 29.6844 50.4324 29.7588L50.6371 31.6569C50.7116 32.3268 49.9114 32.7362 49.409 32.2896L47.9947 31.0056C47.9389 30.9498 47.8644 30.9498 47.79 30.9684L46.0407 31.7686C45.4267 32.0477 44.794 31.415 45.0731 30.8009L45.8547 29.0517C45.8919 28.9772 45.8733 28.9028 45.8174 28.847L44.5334 27.4327C44.0868 26.9303 44.4776 26.1301 45.1475 26.2045L47.0456 26.4092C47.1201 26.4092 47.1945 26.372 47.2317 26.3162L48.1808 24.66C48.5157 24.0459 49.409 24.1948 49.5392 24.8461Z" fill="#F04E64"/>
<path d="M49.8743 24.7902L50.2837 26.6883C50.3023 26.7627 50.3581 26.8186 50.4325 26.8372L52.3306 27.228C53.0006 27.3582 53.1494 28.2701 52.554 28.605L50.8605 29.5727C50.7861 29.6099 50.7489 29.6843 50.7675 29.7588L50.9908 31.6941C51.0652 32.3826 50.2651 32.792 49.744 32.3268L48.2925 31.0242C48.2367 30.9683 48.1623 30.9683 48.0878 30.987L46.32 31.7871C45.6873 32.0663 45.0546 31.4336 45.3337 30.8009L46.1339 29.033C46.1711 28.9586 46.1525 28.8842 46.0967 28.8283L44.7755 27.3954C44.3102 26.893 44.7196 26.0742 45.4082 26.1486L47.3435 26.3533C47.4179 26.3533 47.4923 26.3161 47.5296 26.2603L48.4972 24.5669C48.8322 23.99 49.7254 24.1203 49.8743 24.7902Z" fill="#FEE35E"/>
<path d="M49.5206 25.3112L49.9486 26.893C49.9672 26.9488 50.0231 27.0046 50.0789 27.0046L51.6979 27.2465C52.2747 27.3396 52.4236 28.0839 51.9398 28.3817L50.5813 29.2749C50.5255 29.3121 50.5069 29.3679 50.5069 29.4424L50.7674 31.0427C50.8605 31.601 50.2092 31.9918 49.7625 31.6382L48.4971 30.6147C48.4413 30.5775 48.3855 30.5589 48.3297 30.5961L46.8782 31.3405C46.3757 31.601 45.7989 31.0986 46.0036 30.5589L46.5804 29.033C46.599 28.9772 46.5804 28.9027 46.5432 28.8655L45.3895 27.7304C44.9801 27.321 45.2778 26.6324 45.8547 26.6697L47.4737 26.7627C47.5295 26.7627 47.6039 26.7255 47.6225 26.6697L48.3483 25.2182C48.6088 24.6785 49.3718 24.753 49.5206 25.3112Z" fill="#FCE47E"/>
<path d="M49.7067 25.8322L49.8928 27.2278C49.8928 27.2837 49.93 27.3209 49.9859 27.3395L51.3257 27.7303C51.8095 27.8605 51.8654 28.5119 51.4187 28.7352L50.1533 29.3492C50.0975 29.3679 50.0789 29.4237 50.0789 29.4795L50.1347 30.8752C50.1534 31.3776 49.5579 31.6195 49.2043 31.266L48.2366 30.2611C48.1994 30.2239 48.1436 30.2053 48.0878 30.2239L46.7665 30.7077C46.3013 30.8752 45.8733 30.3913 46.1152 29.9447L46.7851 28.7165C46.8038 28.6607 46.8038 28.6049 46.7665 28.5677L45.9105 27.4698C45.6128 27.079 45.9477 26.5207 46.4316 26.6138L47.8086 26.8743C47.8645 26.8929 47.9203 26.8557 47.9389 26.8184L48.7205 25.6647C48.9996 25.1995 49.6323 25.3483 49.7067 25.8322Z" fill="#F9EBB2"/>
</g>
<defs>
<clipPath id="clip0_237_4371">
<rect width="100" height="100" fill="white"/>
</clipPath>
</defs>
</svg>
